<svg xmlns="http://www.w3.org/2000/svg" width="20.845" height="21" viewBox="0 0 20.845 21">
  <g id="Group_31045" data-name="Group 31045" transform="translate(-578.794 -304.489)">
    <path id="Path_2004" data-name="Path 2004" d="M579.294,437.941v4.546a4.217,4.217,0,0,0,4.41,3.932h11s4.115.267,4.438-4.677v-3.8Z" transform="translate(0 -122.371)" fill="none" stroke="#bc8418" stroke-linecap="round" stroke-linejoin="round" stroke-miterlimit="10" stroke-width="1"/>
    <line id="Line_59" data-name="Line 59" y2="0.938" transform="translate(585.127 324.051)" fill="none" stroke="#bc8418" stroke-linecap="round" stroke-miterlimit="10" stroke-width="1"/>
    <line id="Line_60" data-name="Line 60" y2="0.938" transform="translate(593.254 324.051)" fill="none" stroke="#bc8418" stroke-linecap="round" stroke-miterlimit="10" stroke-width="1"/>
    <path id="Path_2005" data-name="Path 2005" d="M649.887,341.325a3.044,3.044,0,0,1,3.181,3.09v.9h-6.362V344.2A2.978,2.978,0,0,1,649.887,341.325Z" transform="translate(-62.047 -33.442)" fill="none" stroke="#bc8418" stroke-linecap="round" stroke-linejoin="round" stroke-miterlimit="10" stroke-width="1"/>
    <path id="Path_2006" data-name="Path 2006" d="M618.471,315.57V307.6a2.752,2.752,0,0,1,2.809-2.612,2.694,2.694,0,0,1,2.619,2.893" transform="translate(-36.059 0)" fill="none" stroke="#bc8418" stroke-linecap="round" stroke-linejoin="round" stroke-miterlimit="10" stroke-width="1"/>
  </g>
</svg>
