<svg xmlns="http://www.w3.org/2000/svg" width="32.213" height="20.85" viewBox="0 0 32.213 20.85">
  <g id="Group_31043" data-name="Group 31043" transform="translate(-531.382 -302.5)">
    <path id="Path_1997" data-name="Path 1997" d="M531.882,375.158H563.1v-7.132a2.5,2.5,0,0,0-2.608-2.556h-26.14a2.4,2.4,0,0,0-2.465,2.418Z" transform="translate(0 -54.079)" fill="none" stroke="#bc8418" stroke-linecap="round" stroke-linejoin="round" stroke-miterlimit="10" stroke-width="1"/>
    <path id="Path_1998" data-name="Path 1998" d="M582.118,338.482v-4.188H590.3v4.188" transform="translate(-43.487 -27.09)" fill="none" stroke="#bc8418" stroke-linecap="round" stroke-linejoin="round" stroke-miterlimit="10" stroke-width="1"/>
    <path id="Path_1999" data-name="Path 1999" d="M652.706,338.482v-4.188h8.218v4.188" transform="translate(-104.593 -27.09)" fill="none" stroke="#bc8418" stroke-linecap="round" stroke-linejoin="round" stroke-miterlimit="10" stroke-width="1"/>
    <path id="Path_2000" data-name="Path 2000" d="M583.683,311.392v-5.579A2.779,2.779,0,0,0,580.791,303H562.332a2.733,2.733,0,0,0-2.45,2.8v5.595" transform="translate(-24.239)" fill="none" stroke="#bc8418" stroke-linecap="round" stroke-linejoin="round" stroke-miterlimit="10" stroke-width="1"/>
    <path id="Path_2001" data-name="Path 2001" d="M538.941,437.588l.711,1.738h1.881l.759-1.738" transform="translate(-6.111 -116.508)" fill="none" stroke="#bc8418" stroke-linecap="round" stroke-linejoin="round" stroke-miterlimit="10" stroke-width="1"/>
    <path id="Path_2002" data-name="Path 2002" d="M731.529,437.588l.822,1.77h1.833l.759-1.77" transform="translate(-172.828 -116.508)" fill="none" stroke="#bc8418" stroke-linecap="round" stroke-linejoin="round" stroke-miterlimit="10" stroke-width="1"/>
  </g>
</svg>
