<svg xmlns="http://www.w3.org/2000/svg" width="15.61" height="15.637" viewBox="0 0 15.61 15.637">
  <path id="Icon_feather-phone-call" data-name="Icon feather-phone-call" d="M11.859,4.187A3.359,3.359,0,0,1,14.512,6.84M11.859,1.5A6.045,6.045,0,0,1,17.2,6.833m-.672,5.36v2.015a1.343,1.343,0,0,1-1.464,1.343,13.293,13.293,0,0,1-5.8-2.062,13.1,13.1,0,0,1-4.03-4.03A13.293,13.293,0,0,1,3.173,3.636,1.343,1.343,0,0,1,4.51,2.172H6.525A1.343,1.343,0,0,1,7.869,3.327a8.625,8.625,0,0,0,.47,1.888,1.343,1.343,0,0,1-.3,1.417l-.853.853a10.748,10.748,0,0,0,4.03,4.03l.853-.853a1.343,1.343,0,0,1,1.417-.3,8.625,8.625,0,0,0,1.888.47A1.343,1.343,0,0,1,16.527,12.194Z" transform="translate(-2.417 -0.672)" fill="none" stroke="#bc8418" stroke-linecap="round" stroke-linejoin="round" stroke-width="1.5"/>
</svg>
