<svg xmlns="http://www.w3.org/2000/svg" width="37" height="37" viewBox="0 0 37 37">
  <g id="Group_31759" data-name="Group 31759" transform="translate(-1468 -1674)">
    <rect id="Rectangle_1545" data-name="Rectangle 1545" width="37" height="37" rx="8" transform="translate(1468 1674)" fill="#bc8418"/>
    <g id="Group_31758" data-name="Group 31758" transform="translate(1476 1682)">
      <path id="Path_2797" data-name="Path 2797" d="M104.849,241.153c2.706,0,3.027.01,4.1.059a5.6,5.6,0,0,1,1.882.348,3.36,3.36,0,0,1,1.924,1.924,5.612,5.612,0,0,1,.348,1.882c.049,1.069.059,1.389.059,4.1s-.01,3.027-.059,4.1a5.612,5.612,0,0,1-.348,1.882,3.354,3.354,0,0,1-1.924,1.924,5.611,5.611,0,0,1-1.882.349c-1.069.048-1.389.058-4.1.058s-3.027-.01-4.1-.058a5.607,5.607,0,0,1-1.882-.349,3.348,3.348,0,0,1-1.924-1.924,5.607,5.607,0,0,1-.349-1.882c-.048-1.069-.059-1.389-.059-4.1s.011-3.027.059-4.1a5.607,5.607,0,0,1,.349-1.882,3.354,3.354,0,0,1,1.924-1.924,5.592,5.592,0,0,1,1.882-.348c1.069-.049,1.389-.059,4.1-.059m0-1.826c-2.752,0-3.1.012-4.179.061a7.423,7.423,0,0,0-2.46.472,5.181,5.181,0,0,0-2.964,2.964,7.448,7.448,0,0,0-.471,2.46c-.049,1.081-.061,1.426-.061,4.179s.012,3.1.061,4.179a7.444,7.444,0,0,0,.471,2.46,5.185,5.185,0,0,0,2.964,2.964,7.443,7.443,0,0,0,2.46.471c1.081.049,1.426.061,4.179.061s3.1-.012,4.179-.061a7.447,7.447,0,0,0,2.46-.471,5.181,5.181,0,0,0,2.964-2.964,7.422,7.422,0,0,0,.472-2.46c.049-1.081.061-1.426.061-4.179s-.012-3.1-.061-4.179a7.426,7.426,0,0,0-.472-2.46,5.177,5.177,0,0,0-2.964-2.964,7.427,7.427,0,0,0-2.46-.472c-1.081-.049-1.426-.061-4.179-.061" transform="translate(-94.714 -239.327)" fill="#fff"/>
      <path id="Path_2798" data-name="Path 2798" d="M106.244,245.653a5.2,5.2,0,1,0,5.2,5.2,5.2,5.2,0,0,0-5.2-5.2m0,8.582a3.378,3.378,0,1,1,3.378-3.378,3.378,3.378,0,0,1-3.378,3.378" transform="translate(-96.109 -240.722)" fill="#fff"/>
      <path id="Path_2799" data-name="Path 2799" d="M115.529,245.045a1.216,1.216,0,1,1-1.217-1.217,1.217,1.217,0,0,1,1.217,1.217" transform="translate(-98.767 -240.32)" fill="#fff"/>
    </g>
  </g>
</svg>
