<svg id="instagram" xmlns="http://www.w3.org/2000/svg" width="27" height="27" viewBox="0 0 27 27">
  <path id="Path_2791" data-name="Path 2791" d="M212.168,209.584A2.584,2.584,0,1,1,209.584,207,2.584,2.584,0,0,1,212.168,209.584Zm0,0" transform="translate(-196.084 -196.084)" fill="#bc8418"/>
  <path id="Path_2792" data-name="Path 2792" d="M147.883,137.272a2.567,2.567,0,0,0-1.471-1.471,4.289,4.289,0,0,0-1.439-.267c-.818-.037-1.063-.045-3.133-.045s-2.315.008-3.133.045a4.291,4.291,0,0,0-1.439.267,2.568,2.568,0,0,0-1.471,1.471,4.291,4.291,0,0,0-.267,1.439c-.037.817-.045,1.063-.045,3.133s.008,2.315.045,3.133a4.289,4.289,0,0,0,.267,1.439,2.567,2.567,0,0,0,1.471,1.471,4.284,4.284,0,0,0,1.439.267c.817.037,1.062.045,3.132.045s2.315-.008,3.133-.045a4.284,4.284,0,0,0,1.439-.267,2.567,2.567,0,0,0,1.471-1.471,4.293,4.293,0,0,0,.267-1.439c.037-.818.045-1.063.045-3.133s-.008-2.315-.045-3.133a4.284,4.284,0,0,0-.267-1.439Zm-6.043,8.552a3.981,3.981,0,1,1,3.981-3.981A3.981,3.981,0,0,1,141.84,145.824Zm4.138-7.188a.93.93,0,1,1,.93-.93A.93.93,0,0,1,145.978,138.636Zm0,0" transform="translate(-128.34 -128.344)" fill="#bc8418"/>
  <path id="Path_2793" data-name="Path 2793" d="M13.5,0A13.5,13.5,0,1,0,27,13.5,13.5,13.5,0,0,0,13.5,0Zm7.705,16.7a5.687,5.687,0,0,1-.36,1.882,3.964,3.964,0,0,1-2.267,2.267,5.691,5.691,0,0,1-1.882.36c-.827.038-1.091.047-3.2.047s-2.369-.009-3.2-.047a5.691,5.691,0,0,1-1.882-.36,3.964,3.964,0,0,1-2.267-2.267,5.686,5.686,0,0,1-.36-1.882c-.038-.827-.047-1.091-.047-3.2s.009-2.369.047-3.2a5.688,5.688,0,0,1,.36-1.882A3.966,3.966,0,0,1,8.422,6.155a5.693,5.693,0,0,1,1.882-.36c.827-.038,1.091-.047,3.2-.047s2.369.009,3.2.047a5.694,5.694,0,0,1,1.882.36,3.965,3.965,0,0,1,2.267,2.267,5.687,5.687,0,0,1,.36,1.882c.038.827.047,1.091.047,3.2S21.243,15.869,21.205,16.7Zm0,0" fill="#bc8418"/>
</svg>
