<svg xmlns="http://www.w3.org/2000/svg" width="216.435" height="77.154" viewBox="0 0 216.435 77.154">
  <g id="Logo" transform="translate(-798.418 -100.992)">
    <path id="Path_1" data-name="Path 1" d="M815.931,142.225a7.3,7.3,0,1,0,0,7.737l3.288,2.04a11.108,11.108,0,1,1,0-11.845Z" transform="translate(0 -6.518)" fill="#fff"/>
    <path id="Path_2" data-name="Path 2" d="M840.205,156.82v-8.728h-8.643v8.728h-4.024V135.566h4.024v8.672h8.643v-8.672h4.024V156.82Z" transform="translate(-5.586 -6.632)" fill="#fff"/>
    <path id="Path_3" data-name="Path 3" d="M869.376,152.966v3.854H853.761V135.566h15.615v3.854H857.785v4.817h9.636v3.854h-9.636v4.874Z" transform="translate(-10.617 -6.632)" fill="#fff"/>
    <path id="Path_4" data-name="Path 4" d="M889.234,140.525a7.921,7.921,0,0,0-5.016-1.7c-1.955,0-3.258.878-3.287,2.3-.028,1.5.538,2.239,4.449,2.778,4.194.538,6.886,2.919,6.886,6.66,0,4.052-3.6,6.63-8.049,6.63a12.162,12.162,0,0,1-7.849-2.749l2.266-3.2a7.976,7.976,0,0,0,5.583,2.1c2.3,0,3.855-1.076,3.855-2.776,0-1.162-.34-2.551-4.422-3.061-4.846-.595-6.915-2.635-6.915-6.376,0-3.712,3.4-6.149,7.481-6.149a11.846,11.846,0,0,1,7.255,2.38Z" transform="translate(-14.954 -6.518)" fill="#fff"/>
    <path id="Path_5" data-name="Path 5" d="M1059.421,140.525a7.922,7.922,0,0,0-5.016-1.7c-1.955,0-3.259.878-3.287,2.3-.028,1.5.538,2.239,4.449,2.778,4.194.538,6.887,2.919,6.887,6.66,0,4.052-3.6,6.63-8.049,6.63a12.164,12.164,0,0,1-7.85-2.749l2.267-3.2a7.974,7.974,0,0,0,5.583,2.1c2.3,0,3.854-1.076,3.854-2.776,0-1.162-.339-2.551-4.421-3.061-4.846-.595-6.915-2.635-6.915-6.376,0-3.712,3.4-6.149,7.481-6.149a11.846,11.846,0,0,1,7.255,2.38Z" transform="translate(-47.601 -6.518)" fill="#fff"/>
    <path id="Path_6" data-name="Path 6" d="M908.785,139.42v17.4h-4.024v-17.4H898.47v-3.853h16.607v3.853Z" transform="translate(-19.193 -6.633)" fill="#fff"/>
    <path id="Path_7" data-name="Path 7" d="M939,152.966v3.854H923.383V135.566H939v3.854h-11.59v4.817h9.635v3.854h-9.635v4.874Z" transform="translate(-23.972 -6.632)" fill="#fff"/>
    <path id="Path_8" data-name="Path 8" d="M960.125,149.4l3.713,7.425h-4.478l-3.372-6.745h-4.364v6.745H947.6V135.567h9.352a7.266,7.266,0,0,1,7.481,7.254,7.066,7.066,0,0,1-4.307,6.574m-3.174-9.975h-5.328v6.8h5.328a3.4,3.4,0,0,0,0-6.8" transform="translate(-28.618 -6.633)" fill="#fff"/>
    <path id="Path_9" data-name="Path 9" d="M981.311,139.42v17.4h-4.024v-17.4H971v-3.853H987.6v3.853Z" transform="translate(-33.106 -6.633)" fill="#fff"/>
    <path id="Path_10" data-name="Path 10" d="M1003.716,157.188a11.112,11.112,0,1,1,11.392-11.108,11.136,11.136,0,0,1-11.392,11.108m0-18.363a7.255,7.255,0,1,0,7.2,7.255,7.22,7.22,0,0,0-7.2-7.255" transform="translate(-37.198 -6.518)" fill="#fff"/>
    <path id="Path_11" data-name="Path 11" d="M1034.914,128.934l.028,14.2h-.085l-8.529-14.1V100.992h-1.291v77.154h1.291V136.021l8.585,14.167h4.024V128.934Z" transform="translate(-43.473 0)" fill="#fff"/>
  </g>
</svg>
