<svg xmlns="http://www.w3.org/2000/svg" width="27.073" height="27.075" viewBox="0 0 27.073 27.075">
  <path id="Icon_simple-messenger" data-name="Icon simple-messenger" d="M0,13.13C0,5.584,5.91,0,13.535,0S27.071,5.584,27.071,13.13,21.161,26.26,13.535,26.26a14.773,14.773,0,0,1-3.914-.519A1.083,1.083,0,0,0,8.9,25.8L6.2,26.981a1.083,1.083,0,0,1-1.523-.959L4.6,23.609a1.094,1.094,0,0,0-.361-.767A12.848,12.848,0,0,1,0,13.13Zm9.385-2.47L5.414,16.976a.636.636,0,0,0,.925.846l4.275-3.237a.8.8,0,0,1,.981,0l3.158,2.369a2.036,2.036,0,0,0,2.933-.541L21.657,10.1a.636.636,0,0,0-.925-.846l-4.275,3.237a.78.78,0,0,1-.97,0l-3.158-2.369a2.03,2.03,0,0,0-2.944.541Z" transform="translate(0.002)" fill="#bc8418"/>
</svg>
