<svg xmlns="http://www.w3.org/2000/svg" width="19.672" height="20.429" viewBox="0 0 19.672 20.429">
  <g id="Group_31047" data-name="Group 31047" transform="translate(-535.676 -297.176)">
    <line id="Line_61" data-name="Line 61" x2="12.146" transform="translate(539.486 308.151)" fill="none" stroke="#bc8418" stroke-linecap="round" stroke-miterlimit="10" stroke-width="1"/>
    <path id="Path_2007" data-name="Path 2007" d="M622.3,408.059v8.507s-.089.463.458.447h1.557s.413.017.4-.508v-8.446" transform="translate(-77.948 -99.908)" fill="none" stroke="#bc8418" stroke-linecap="round" stroke-linejoin="round" stroke-miterlimit="10" stroke-width="1"/>
    <line id="Line_62" data-name="Line 62" y2="15.842" transform="translate(554.848 301.262)" fill="none" stroke="#bc8418" stroke-linecap="round" stroke-miterlimit="10" stroke-width="1"/>
    <path id="Path_2008" data-name="Path 2008" d="M677.176,440.119V434a.407.407,0,0,1,.4-.413h4.89" transform="translate(-127.62 -123.015)" fill="none" stroke="#bc8418" stroke-linecap="round" stroke-linejoin="round" stroke-miterlimit="10" stroke-width="1"/>
    <line id="Line_63" data-name="Line 63" x2="5.292" transform="translate(549.556 312.628)" fill="none" stroke="#bc8418" stroke-linecap="round" stroke-miterlimit="10" stroke-width="1"/>
    <path id="Path_2009" data-name="Path 2009" d="M549.851,300.029h15.641s.544-.218.067-1.306a2.327,2.327,0,0,0-1.382-1.047H551.383a2.051,2.051,0,0,0-1.633,1.176S549.3,299.895,549.851,300.029Z" transform="translate(-12.129)" fill="none" stroke="#bc8418" stroke-linecap="round" stroke-linejoin="round" stroke-miterlimit="10" stroke-width="1"/>
    <line id="Line_64" data-name="Line 64" y2="8.122" transform="translate(545.537 300.029)" fill="none" stroke="#bc8418" stroke-linecap="round" stroke-miterlimit="10" stroke-width="1"/>
    <line id="Line_65" data-name="Line 65" y2="15.842" transform="translate(536.176 301.262)" fill="none" stroke="#bc8418" stroke-linecap="round" stroke-miterlimit="10" stroke-width="1"/>
    <path id="Path_2010" data-name="Path 2010" d="M541.468,440.119V434a.407.407,0,0,0-.4-.413h-4.89" transform="translate(0 -123.015)" fill="none" stroke="#bc8418" stroke-linecap="round" stroke-linejoin="round" stroke-miterlimit="10" stroke-width="1"/>
    <line id="Line_66" data-name="Line 66" x1="5.292" transform="translate(536.176 312.628)" fill="none" stroke="#bc8418" stroke-linecap="round" stroke-miterlimit="10" stroke-width="1"/>
  </g>
</svg>
