<svg xmlns="http://www.w3.org/2000/svg" width="315" height="151" viewBox="0 0 315 151">
  <g id="Group_31947" data-name="Group 31947" transform="translate(-30 -521)">
    <rect id="Rectangle_1556" data-name="Rectangle 1556" width="315" height="151" transform="translate(30 521)" fill="#f6f6f6"/>
    <g id="download_3_" data-name="download (3)" transform="translate(120.1 581.4)">
      <path id="Path_2699" data-name="Path 2699" d="M9.288,17.216c0,1.306.033,3.785.1,4.12.067.435.234.837.569.837h1.105c.134,0,.167.067.167.167v.536c0,.167-.067.2-.234.2-.3,0-.737-.067-3.015-.067-2.144,0-2.68.067-2.914.067-.134,0-.167-.067-.167-.2v-.5c0-.1.033-.167.134-.167h.737c.469,0,.837-.134.837-.737.033-2.211.033-4.288.033-6.365V9.276c0-.737-.3-1.105-.7-1.105H5.067c-.1,0-.134-.033-.134-.134V7.467c0-.1.033-.167.167-.167.167,0,.871.067,3.015.067,1.239,0,3.249-.067,3.919-.067a6.084,6.084,0,0,1,4.02,1.373,3.376,3.376,0,0,1,1.206,2.479c0,2.78-1.675,3.919-4.087,4.321v.1a2.909,2.909,0,0,1,1.306,1c.268.368,1.641,2.412,1.809,2.68a27.068,27.068,0,0,0,1.876,2.512,2.376,2.376,0,0,0,1.574.4c.134,0,.167.067.167.167v.469c0,.167-.033.234-.167.234-.167,0-.737-.067-2.144-.067-.6,0-1.44.034-1.943.067a6.238,6.238,0,0,1-.971-1.273c-.4-.6-1.273-2.211-1.44-2.546-.234-.4-.837-1.407-1.206-1.909-.536-.77-1.072-1.373-1.976-1.373-.1,0-.469.033-.7.033v1.239Zm.033-2.01a8.1,8.1,0,0,0,.837.1,3.858,3.858,0,0,0,4.154-3.785,3.572,3.572,0,0,0-.971-2.479A4.242,4.242,0,0,0,10.427,8.1a1.74,1.74,0,0,0-.8.134.76.76,0,0,0-.268.636Z" transform="translate(0 -0.466)" fill="#612172"/>
      <path id="Path_2700" data-name="Path 2700" d="M53.078,30.456a3.337,3.337,0,0,0,2.881,3.584,3.016,3.016,0,0,0,2.68-1.273c.1-.167.167-.167.268-.1l.335.2c.1.067.167.167,0,.435a4.368,4.368,0,0,1-4.02,2.345,3.793,3.793,0,0,1-3.182-1.206A5.065,5.065,0,0,1,50.8,30.791a4.531,4.531,0,0,1,1.072-3.249c.938-1.206,1.909-1.641,3.852-1.641,2.512,0,3.316,2.613,3.316,3.517,0,.335-.234.368-.6.368h-5.36Zm2.713-1.474c.469,0,.737-.134.737-.3,0-.67-.234-1.976-1.373-1.976-1.072,0-1.742.8-2.043,2.278Z" transform="translate(-30.524 -12.835)" fill="#612172"/>
      <path id="Path_2701" data-name="Path 2701" d="M82.386,16.348c0,1.775-.033,4.187.034,4.79q.05.6.6.6h1c.167,0,.234.033.234.2v.4c0,.134-.033.234-.134.234-.134,0-.971-.067-2.914-.067-1.306,0-2.479.067-2.646.067-.134,0-.167-.033-.167-.167v-.5c0-.1.034-.134.235-.134h.871c.435,0,.569-.268.569-.737V14.405H78.567c-.1,0-.134-.067-.1-.234l.1-.737c0-.1.1-.1.3-.1h1.239V12.9A6.446,6.446,0,0,1,81.75,8.174,5.127,5.127,0,0,1,85.468,6.6c1.206,0,2.144.435,2.144,1.373a1.21,1.21,0,0,1-1.105,1.072,1.158,1.158,0,0,1-.7-.167,1.419,1.419,0,0,1-.6-.569,1.067,1.067,0,0,0-.871-.569,1.5,1.5,0,0,0-1.373.7c-.569.8-.469,2.546-.5,4.221v.7h2.613c.167,0,.167.1.167.2l-.1.8c-.034.1-.1.1-.3.1H82.42v1.876Z" transform="translate(-48.878)" fill="#612172"/>
      <path id="Path_2702" data-name="Path 2702" d="M102.678,30.456a3.337,3.337,0,0,0,2.881,3.584,3.016,3.016,0,0,0,2.68-1.273c.1-.167.167-.167.268-.1l.335.2c.1.067.168.167,0,.435a4.368,4.368,0,0,1-4.02,2.345,3.793,3.793,0,0,1-3.182-1.206,5.065,5.065,0,0,1-1.239-3.651,4.531,4.531,0,0,1,1.072-3.249c.938-1.206,1.909-1.641,3.852-1.641,2.512,0,3.316,2.613,3.316,3.517,0,.335-.234.368-.6.368h-5.326v.67Zm2.713-1.474c.469,0,.737-.134.737-.3,0-.67-.234-1.976-1.373-1.976-1.072,0-1.742.8-2.043,2.278Z" transform="translate(-63.508 -12.835)" fill="#612172"/>
      <path id="Path_2703" data-name="Path 2703" d="M129.674,29.486c0-1-.167-1.373-.837-1.708l-.4-.234c-.134-.034-.167-.1-.167-.167v-.134c0-.1.033-.134.167-.2l2.68-1.273a1.51,1.51,0,0,1,.368-.1c.134,0,.167.134.2.268l.2,1.641h.1a3.377,3.377,0,0,1,2.646-1.976,1.064,1.064,0,0,1,1.139,1.105,1.3,1.3,0,0,1-1.206,1.206,2,2,0,0,1-.737-.167.971.971,0,0,0-.6-.167,1.147,1.147,0,0,0-.938.636,2.659,2.659,0,0,0-.268,1.072v4.221c0,.7.167.938.6.938h.971c.134,0,.167.033.167.167v.5c0,.1-.034.167-.167.167-.168,0-1.139-.067-2.747-.067-1.541,0-2.412.067-2.579.067-.1,0-.167-.034-.167-.167v-.469c0-.134.033-.167.2-.167h.77c.369,0,.569-.167.569-.6V29.486Z" transform="translate(-81.928 -12.635)" fill="#612172"/>
      <path id="Path_2704" data-name="Path 2704" d="M153.574,29.486c0-1-.167-1.373-.837-1.708l-.4-.234c-.134-.034-.167-.1-.167-.167v-.134c0-.1.033-.134.167-.2l2.68-1.273a1.51,1.51,0,0,1,.368-.1c.134,0,.168.134.2.268l.2,1.641h.1a3.377,3.377,0,0,1,2.646-1.976,1.064,1.064,0,0,1,1.139,1.105,1.3,1.3,0,0,1-1.206,1.206,2,2,0,0,1-.737-.167.971.971,0,0,0-.6-.167,1.147,1.147,0,0,0-.938.636,2.659,2.659,0,0,0-.268,1.072v4.221c0,.7.167.938.6.938h.971c.134,0,.167.033.167.167v.5c0,.1-.033.167-.167.167-.167,0-1.139-.067-2.747-.067-1.541,0-2.412.067-2.579.067-.1,0-.167-.034-.167-.167v-.469c0-.134.033-.167.2-.167h.771c.368,0,.569-.167.569-.6V29.486Z" transform="translate(-97.822 -12.635)" fill="#612172"/>
      <path id="Path_2705" data-name="Path 2705" d="M181.991,34.275a4.362,4.362,0,0,1-1.909,1.206,4.246,4.246,0,0,1-1.407.167c-.8,0-1.507-.67-1.507-1.909a2.844,2.844,0,0,1,2.043-2.713,19.834,19.834,0,0,0,2.68-1.373V28.513a2.091,2.091,0,0,0-.368-1.239,1.508,1.508,0,0,0-1.105-.335,2.206,2.206,0,0,0-1.273.4c-.3.234-.1.536-.1,1.072a1.144,1.144,0,0,1-1.306,1.273.7.7,0,0,1-.737-.737,2.458,2.458,0,0,1,1-1.809,5.849,5.849,0,0,1,3.584-1.239,2.66,2.66,0,0,1,2.043.6,2.13,2.13,0,0,1,.536,1.641l.034,3.484V32.7c0,1.206.167,1.541.569,1.541a.821.821,0,0,0,.7-.368c.1-.134.134-.134.234-.1l.268.167c.1.033.134.134.034.368a2.213,2.213,0,0,1-2.043,1.273,1.811,1.811,0,0,1-1.842-1.34h-.134Zm-.134-3.819c-.972.6-2.412,1-2.412,2.613,0,.9.469,1.34,1,1.34.6-.034,1.407-.67,1.407-1.072Z" transform="translate(-114.447 -12.835)" fill="#612172"/>
      <path id="Path_2706" data-name="Path 2706" d="M205.508,10.05a1.3,1.3,0,0,0-1.139-1.306l-.436-.134c-.134-.034-.134-.1-.134-.167V8.174a.2.2,0,0,1,.167-.167,19.471,19.471,0,0,0,3.316-1.273,1.7,1.7,0,0,1,.469-.134c.134,0,.234.1.234.4-.033,1.206-.1,5.762-.1,7v3.115c0,1,0,3.249.034,3.919.033.4.1.7.569.7h.837c.234,0,.268.033.268.2v.4c0,.134-.034.234-.134.234-.167,0-1.139-.067-2.68-.067-1.675,0-2.546.067-2.747.067-.134,0-.167-.1-.167-.234v-.4c0-.134.034-.167.3-.167h.837c.234,0,.536-.167.536-.8v-6.9C205.609,12.529,205.542,10.62,205.508,10.05Z" transform="translate(-132.269 0)" fill="#612172"/>
      <path id="Path_2707" data-name="Path 2707" d="M246.185,7.467c0-.134.033-.167.167-.167.167,0,1.206.067,2.613.067,1.842,0,2.412-.067,2.613-.067.134,0,.167.033.167.167V8c0,.1-.034.167-.167.167h-.536a1.877,1.877,0,0,0-1.608,1c-.737,1.172-2.043,4.623-2.68,6.063-.436.971-3.082,7.4-3.316,7.872a.563.563,0,0,1-.435.3c-.268,0-.369-.234-.469-.5-.737-1.876-2.613-6.934-3.35-8.978-.569-1.574-1.541-4.422-1.775-5.058a.954.954,0,0,0-.938-.7h-.536c-.1,0-.134-.067-.134-.2v-.5c0-.134.033-.167.134-.167.234,0,.971.067,3.249.067,2.077,0,3.082-.067,3.249-.067s.235.067.235.167v.469c0,.167-.034.234-.167.234h-1.072c-.569,0-.938.234-.938.536a3.288,3.288,0,0,0,.067.737c.167.8,1,3.383,1.44,4.69.3.837,1.507,4.321,1.842,5.527h.033v-.033c.536-1.239,1.943-4.891,2.144-5.561.368-1.038,1.708-4.355,1.708-5.259,0-.268-.234-.6-.837-.6h-.6a.188.188,0,0,1-.167-.2V7.467Z" transform="translate(-153.549 -0.466)" fill="#612172"/>
      <path id="Path_2708" data-name="Path 2708" d="M282.891,34.275a4.362,4.362,0,0,1-1.909,1.206,4.246,4.246,0,0,1-1.407.167c-.8,0-1.507-.67-1.507-1.909a2.844,2.844,0,0,1,2.043-2.713,19.833,19.833,0,0,0,2.68-1.373V28.513a2.09,2.09,0,0,0-.368-1.239,1.508,1.508,0,0,0-1.105-.335,2.206,2.206,0,0,0-1.273.4c-.3.234-.1.536-.1,1.072a1.144,1.144,0,0,1-1.306,1.273.7.7,0,0,1-.737-.737,2.458,2.458,0,0,1,1.005-1.809,5.849,5.849,0,0,1,3.584-1.239,2.66,2.66,0,0,1,2.043.6,2.13,2.13,0,0,1,.536,1.641l.034,3.484V32.7c0,1.206.168,1.541.569,1.541a.821.821,0,0,0,.7-.368c.1-.134.134-.134.235-.1l.268.167c.1.033.134.134.034.368a2.213,2.213,0,0,1-2.043,1.273,1.811,1.811,0,0,1-1.842-1.34h-.134Zm-.134-3.819c-.971.6-2.412,1-2.412,2.613,0,.9.469,1.34,1,1.34.6-.034,1.407-.67,1.407-1.072Z" transform="translate(-181.546 -12.835)" fill="#612172"/>
      <path id="Path_2709" data-name="Path 2709" d="M312.97,34.506h-.134a3.7,3.7,0,0,1-2.915,1.507,2.4,2.4,0,0,1-2.278-.971,4.236,4.236,0,0,1-.8-3.082c0-1.072.034-1.842.034-2.278,0-.536,0-1.306-.034-1.574a.833.833,0,0,0-.771-.8c-.368-.034-.469-.034-.469-.167v-.4c0-.134.033-.167.268-.167h2.646c.134,0,.234-.034.335-.034a.654.654,0,0,1,.234-.034.259.259,0,0,1,.235.268c0,.235-.1,1.239-.1,2.747v1.373c0,.871-.167,2.378.435,3.316a1.346,1.346,0,0,0,1.407.6,2.113,2.113,0,0,0,1.541-.837,1.345,1.345,0,0,0,.234-.7V28.041c0-.569-.435-.7-.938-.737-.4-.034-.436-.1-.436-.167v-.4c0-.167.067-.167.268-.167h2.747c.167,0,.268-.034.368-.034a.927.927,0,0,1,.3-.034c.134,0,.167.134.167.235a25.968,25.968,0,0,0-.134,2.981v1.608c0,1.072,0,2.11.034,2.546.1.67.3.737.469.737a5.982,5.982,0,0,0,.7-.034c.167-.033.234,0,.268.1l.067.368a.148.148,0,0,1-.1.2l-2.747.77a1.663,1.663,0,0,1-.436.1.274.274,0,0,1-.3-.268Z" transform="translate(-199.967 -13.234)" fill="#612172"/>
      <path id="Path_2710" data-name="Path 2710" d="M341.008,10.05a1.3,1.3,0,0,0-1.139-1.306l-.436-.134c-.134-.034-.134-.1-.134-.167V8.174a.2.2,0,0,1,.167-.167,19.471,19.471,0,0,0,3.316-1.273,1.7,1.7,0,0,1,.469-.134c.134,0,.234.1.234.4-.033,1.206-.1,5.762-.1,7v3.115c0,1,0,3.249.034,3.919.033.4.1.7.569.7h.837c.234,0,.268.033.268.2v.4c0,.134-.034.234-.134.234-.168,0-1.139-.067-2.68-.067-1.675,0-2.546.067-2.747.067-.134,0-.168-.1-.168-.234v-.4c0-.134.034-.167.3-.167h.837c.234,0,.536-.167.536-.8v-6.9C341.109,12.529,341.042,10.62,341.008,10.05Z" transform="translate(-222.377 0)" fill="#612172"/>
      <path id="Path_2711" data-name="Path 2711" d="M357.7,22.918a.281.281,0,0,1-.3-.3c0-.167.134-.3.436-.4a9.294,9.294,0,0,0,3.015-2.78.425.425,0,0,1,.368-.234.274.274,0,0,1,.268.3l-.1,2.177H364.3a.156.156,0,0,1,.167.167l-.234.938c-.033.1-.1.134-.234.134h-2.68c-.034.938-.067,1.976-.067,2.948v1.976c0,1.708.737,2.077,1.172,2.077a2.865,2.865,0,0,0,1.273-.268c.168-.067.235-.067.268.034l.134.268a.254.254,0,0,1-.1.3,4.5,4.5,0,0,1-2.78.871,2.28,2.28,0,0,1-2.311-1.976c0-.8.067-2.546.067-3.383V22.885H357.7Z" transform="translate(-234.414 -8.379)" fill="#612172"/>
    </g>
  </g>
</svg>
