<svg xmlns="http://www.w3.org/2000/svg" width="315" height="151" viewBox="0 0 315 151">
  <g id="Group_31948" data-name="Group 31948" transform="translate(-30 -687)">
    <rect id="Rectangle_1557" data-name="Rectangle 1557" width="315" height="151" transform="translate(30 687)" fill="#f6f6f6"/>
    <g id="download_4_" data-name="download (4)" transform="translate(127.9 741.5)">
      <path id="Path_2712" data-name="Path 2712" d="M139.429,13.988c-1.248-.551-2.5-1.248-2.5-2.786a3.083,3.083,0,0,1,3.308-2.9,6.906,6.906,0,0,1,2.293.377c.319.116.29.319.319.638.029.435.058.9.058,1.335a.183.183,0,0,1-.2.2c-.2,0-.232-.261-.261-.406-.377-1.19-.9-1.828-2.235-1.828-1.132,0-2.206.58-2.206,1.828,0,1.48,1.886,2.089,3.018,2.554a5.51,5.51,0,0,1,1.712,1.074,3.15,3.15,0,0,1,.813,2.031,3.2,3.2,0,0,1-1.19,2.438,4.256,4.256,0,0,1-2.757.9,5.35,5.35,0,0,1-2.583-.667c-.29-.2-.232-.667-.232-.958a10.5,10.5,0,0,1,.058-1.335c.029-.145.058-.348.261-.348.232,0,.232.435.232.58a2.378,2.378,0,0,0,2.525,2.409,2.4,2.4,0,0,0,2.554-2.235c0-1.364-.929-2.031-2.089-2.554Z" transform="translate(-93.469 -2.697)" fill="#612172"/>
      <path id="Path_2713" data-name="Path 2713" d="M162.748,22.112c0-.232.029-.9-.174-1.1a.76.76,0,0,0-.493-.145h-.232c-.116,0-.2-.029-.2-.145,0-.2.232-.232.406-.29a3.833,3.833,0,0,0,1.422-.9c.087-.087.174-.232.319-.232.174,0,.145.145.145.261v.958a4.855,4.855,0,0,1,2.9-1.219,3.662,3.662,0,0,1,2.583,1.19,3.912,3.912,0,0,1,1.045,2.728,4.077,4.077,0,0,1-4.295,4.063,4.87,4.87,0,0,1-1.712-.348,2.033,2.033,0,0,0-.406-.087c-.2,0-.145.406-.145.522v1.828c0,.726-.145,1.335.784,1.422.174.029.493,0,.493.232a.183.183,0,0,1-.2.2c-.551,0-1.1-.058-1.625-.058-.551,0-1.1.058-1.625.058-.116,0-.232-.029-.232-.174,0-.261.29-.232.493-.232.929-.087.784-.667.784-1.422v-7.11Zm5.514-1.161a3,3,0,0,0-2.089-.9,2.349,2.349,0,0,0-1.944.9,1.709,1.709,0,0,0-.29,1.19v2.67a2.1,2.1,0,0,0,.551,1.683,2.475,2.475,0,0,0,1.509.493,3.329,3.329,0,0,0,3.192-3.511,3.767,3.767,0,0,0-.929-2.525" transform="translate(-111.013 -10.502)" fill="#612172"/>
      <path id="Path_2714" data-name="Path 2714" d="M195.119,22.115c0-.232.029-.9-.174-1.1a.76.76,0,0,0-.493-.145h-.232c-.116,0-.2-.029-.2-.145,0-.2.232-.232.406-.29a3.833,3.833,0,0,0,1.422-.9c.087-.087.174-.232.319-.232.174,0,.145.145.145.261V20.4c0,.058-.029.348.087.348.174,0,.842-1.364,2.031-1.364a.9.9,0,0,1,.987.813.678.678,0,0,1-.725.7c-.58,0-.609-.638-1.1-.638-.377,0-.667.348-.871.609a2.563,2.563,0,0,0-.406,1.712v2.728c0,.726-.145,1.335.784,1.422.174.029.493,0,.493.232a.183.183,0,0,1-.2.2c-.551,0-1.1-.058-1.625-.058-.551,0-1.1.058-1.625.058-.116,0-.232-.029-.232-.174,0-.261.29-.232.493-.232.929-.087.784-.667.784-1.422V22.115Z" transform="translate(-134.01 -10.505)" fill="#612172"/>
      <path id="Path_2715" data-name="Path 2715" d="M217.109,17.6c0,.726-.145,1.335.784,1.422.174.029.493,0,.493.232a.183.183,0,0,1-.2.2c-.551,0-1.1-.058-1.625-.058-.551,0-1.1.058-1.625.058-.116,0-.232-.029-.232-.174,0-.261.29-.232.493-.232.929-.087.784-.667.784-1.422v-3.25c0-.232.029-.9-.174-1.1a.76.76,0,0,0-.493-.145h-.232c-.116,0-.2-.029-.2-.145,0-.2.232-.232.406-.29a3.833,3.833,0,0,0,1.422-.9c.087-.087.174-.232.319-.232.174,0,.145.145.145.261V17.6Zm-1.335-8.329a.838.838,0,0,1,.784-.871.776.776,0,0,1,.726.813.78.78,0,0,1-.755.871.763.763,0,0,1-.755-.813" transform="translate(-148.774 -2.768)" fill="#612172"/>
      <path id="Path_2716" data-name="Path 2716" d="M230.39,22.044c0-.232.029-.9-.174-1.1a.76.76,0,0,0-.493-.145h-.232c-.116,0-.2-.029-.2-.145,0-.2.232-.232.406-.29a3.833,3.833,0,0,0,1.422-.9c.087-.087.174-.232.319-.232.174,0,.145.145.145.261v1.132c.29,0,1.248-1.422,2.815-1.422a2.47,2.47,0,0,1,2.031.929,3.58,3.58,0,0,1,.522,2.38v2.728c0,.726-.145,1.335.784,1.422.174.029.493,0,.493.232a.183.183,0,0,1-.2.2c-.551,0-1.1-.058-1.625-.058-.551,0-1.1.058-1.625.058-.116,0-.232-.029-.232-.174,0-.261.29-.232.493-.232.929-.087.784-.667.784-1.422V22.537a3.128,3.128,0,0,0-.319-1.712,1.931,1.931,0,0,0-1.625-.784,2.419,2.419,0,0,0-1.712.726,1.887,1.887,0,0,0-.551,1.567v2.873c0,.726-.145,1.335.784,1.422.174.029.493,0,.493.232a.183.183,0,0,1-.2.2c-.551,0-1.1-.058-1.625-.058-.551,0-1.1.058-1.625.058-.116,0-.232-.029-.232-.174,0-.261.29-.232.493-.232.929-.087.784-.667.784-1.422V22.044Z" transform="translate(-159.066 -10.434)" fill="#612172"/>
      <path id="Path_2717" data-name="Path 2717" d="M267.532,20.109c.435,0,.58-.058.609.377,0,.058.029.232-.029.261a2.458,2.458,0,0,1-.638.029c-.087,0-.7-.087-.7.145a.868.868,0,0,0,.116.29,2.239,2.239,0,0,1,.232,1.074,2.613,2.613,0,0,1-.871,1.857,3.72,3.72,0,0,1-2.467.813,2.847,2.847,0,0,0-1.306.261c-.2.087-.522.2-.522.464,0,.406.726.551,1.045.551h1.857a4.059,4.059,0,0,1,2.031.319,1.759,1.759,0,0,1,1.132,1.509c0,2.235-2.9,3.047-4.7,3.047a5.43,5.43,0,0,1-2.264-.435,1.76,1.76,0,0,1-1.161-1.451c0-.638.435-.987.958-1.277l.493-.261c.087-.058.58-.29.58-.435s-.261-.348-.348-.435c-.145-.116-.958-.784-.958-.987,0-.116.058-.145.174-.174.232-.087,1.741-.609,1.741-.784,0-.232-1.886-.813-1.886-2.583,0-1.741,1.683-2.786,3.279-2.786a3.658,3.658,0,0,1,1.741.406,1.641,1.641,0,0,0,1.045.232h.813Zm-5.02,7.226c-.609.377-1.422.871-1.422,1.654a1.59,1.59,0,0,0,.813,1.335,3.308,3.308,0,0,0,1.741.435c1.161,0,3.221-.493,3.221-1.973,0-1.219-1.277-1.451-2.206-1.451Zm3.308-5.166c0-1.045-.667-2.38-1.886-2.38A2.189,2.189,0,0,0,261.9,22.2c0,1.1.609,2.467,1.886,2.467,1.422-.029,2.031-1.248,2.031-2.5" transform="translate(-180.857 -10.647)" fill="#612172"/>
      <path id="Path_2718" data-name="Path 2718" d="M292.547,20.523c0,.726-.029,2,1.016,2,.638,0,1.1-.609,1.248-.609a.125.125,0,0,1,.116.116c0,.174-.232.406-.348.493a2.312,2.312,0,0,1-1.6.638,1.643,1.643,0,0,1-1.248-.522,3.56,3.56,0,0,1-.377-2.118V16.112c0-.348-.116-.319-.435-.319-.087,0-.522.058-.522-.145,0-.116.116-.2.2-.261a3.934,3.934,0,0,0,1.625-1.741c.029-.058.087-.145.174-.145.116,0,.145.116.145.2v1.219c0,.232.029.319.261.348h1.712c.145,0,.145.116.145.232,0,.348-.145.261-.522.261h-.958c-.406,0-.638-.116-.638.377v4.382Z" transform="translate(-202.506 -6.388)" fill="#612172"/>
      <path id="Path_2719" data-name="Path 2719" d="M310.409,17.6c0,.726-.145,1.335.784,1.422.174.029.493,0,.493.232a.183.183,0,0,1-.2.2c-.551,0-1.1-.058-1.625-.058-.551,0-1.1.058-1.625.058-.116,0-.232-.029-.232-.174,0-.261.29-.232.493-.232.929-.087.784-.667.784-1.422v-3.25c0-.232.029-.9-.174-1.1a.76.76,0,0,0-.493-.145h-.232c-.116,0-.2-.029-.2-.145,0-.2.232-.232.406-.29A3.833,3.833,0,0,0,310,11.8c.087-.087.174-.232.319-.232.174,0,.145.145.145.261V17.6Zm-1.335-8.329a.838.838,0,0,1,.784-.871.776.776,0,0,1,.726.813.78.78,0,0,1-.755.871.763.763,0,0,1-.755-.813" transform="translate(-214.998 -2.768)" fill="#612172"/>
      <path id="Path_2720" data-name="Path 2720" d="M328.532,15.005c0,.2-.058.871.261.871.348,0,.638-.609.813-.609.116,0,.116.145.087.2l-.029.232c-.029.232-.087.232-.29.29l-1.393.522a.894.894,0,0,1-.348.145c-.2,0-.174-.377-.2-.493,0-.058,0-.551-.174-.551-.261,0-1.248,1.161-2.641,1.161A3.855,3.855,0,0,1,320.9,12.8a3.774,3.774,0,0,1,1.19-2.757,4.283,4.283,0,0,1,2.931-1.248,6.2,6.2,0,0,1,1.828.348,1.415,1.415,0,0,0,.319.116c.2,0,.145-.522.145-.638V7c0-.638.145-1.393-.667-1.393-.145,0-.435.058-.435-.174,0-.116.145-.174.232-.2a4.6,4.6,0,0,0,1.538-.522c.087-.058.232-.2.348-.2.174,0,.145.145.145.261V15.005Zm-1.161-3.715a2.092,2.092,0,0,0-.406-1.6,2.407,2.407,0,0,0-1.77-.551,3.287,3.287,0,0,0-2.989,3.424c0,1.712,1.074,3.482,2.96,3.482a2.712,2.712,0,0,0,2.031-.813c.232-.261.174-.522.174-.871Z" transform="translate(-224.155)" fill="#612172"/>
      <path id="Path_2721" data-name="Path 2721" d="M354.073,22.576c-.522,0-.7-.029-.7.522a3.364,3.364,0,0,0,3.337,3.6,4.045,4.045,0,0,0,2.554-1.1.137.137,0,0,1,.145.145c0,.2-.551.667-.667.784a4.035,4.035,0,0,1-6.646-2.989,3.452,3.452,0,0,1,1.248-2.873,4.629,4.629,0,0,1,3.105-1.161,2.842,2.842,0,0,1,3.076,2.815c0,.145-.029.29-.2.29h-5.253Zm1.422-.435a11.42,11.42,0,0,0,2-.145c.377-.087.638-.261.638-.7a1.69,1.69,0,0,0-.435-1.016,1.984,1.984,0,0,0-1.48-.522,2.778,2.778,0,0,0-2.235,1.161,2.511,2.511,0,0,0-.435.987c0,.261.406.232.58.232Z" transform="translate(-246.3 -10.647)" fill="#612172"/>
      <path id="Path_2722" data-name="Path 2722" d="M145.686,71.938c0,.145-.058.232-.2.232-.435,0-.58-2.206-3.25-2.206-2.873,0-4.324,2.467-4.324,5.049a5.606,5.606,0,0,0,1.074,3.366,3.986,3.986,0,0,0,3.25,1.828c2.67,0,2.873-2.7,3.337-2.7a.206.206,0,0,1,.2.232l-.087,1.393c-.029.522-.029.58-.551.813a6.783,6.783,0,0,1-3.105.726,5.654,5.654,0,0,1-5.63-5.63,5.766,5.766,0,0,1,5.949-5.543,9.777,9.777,0,0,1,2.728.464c.493.174.435.406.493.871Z" transform="translate(-93.197 -46.137)" fill="#612172"/>
      <path id="Path_2723" data-name="Path 2723" d="M176.089,84.069c.609-.29.638-.319.638-.958v-.755c0-.842-.029-1.538-1.1-1.538a2.055,2.055,0,0,0-1.973,1.451c-.116.261-.2.493-.493.609a2.125,2.125,0,0,1-.726.232c-.145,0-.232-.029-.232-.2a1.914,1.914,0,0,1,.725-1.219A4.787,4.787,0,0,1,176,80.5a2.474,2.474,0,0,1,1.567.435c.406.348.348.784.348,1.248v4.063c0,.377-.029,1.364.609,1.364.435,0,.609-.435.784-.435a.133.133,0,0,1,.116.145c0,.2-.29.435-.406.522a2.372,2.372,0,0,1-1.219.493c-.842,0-.929-1.19-1.161-1.19-.145,0-1.277,1.306-2.757,1.306a1.484,1.484,0,0,1-1.625-1.364c0-1.219,1.6-1.944,2.554-2.409Zm-1.248.958c-.667.348-1.335.784-1.335,1.625a1.057,1.057,0,0,0,1.19,1.016,2.195,2.195,0,0,0,1.6-.7,1.516,1.516,0,0,0,.435-1.277V84.679c0-.058.058-.493-.116-.493-.058,0-.145.058-.2.058Z" transform="translate(-118.607 -53.945)" fill="#612172"/>
      <path id="Path_2724" data-name="Path 2724" d="M197.648,83.112c0-.232.029-.9-.174-1.1a.76.76,0,0,0-.493-.145h-.232c-.116,0-.2-.029-.2-.145,0-.2.232-.232.406-.29a3.833,3.833,0,0,0,1.422-.9c.087-.087.174-.232.319-.232.174,0,.145.145.145.261v.958a4.855,4.855,0,0,1,2.9-1.219,3.662,3.662,0,0,1,2.583,1.19,3.913,3.913,0,0,1,1.045,2.728,4.077,4.077,0,0,1-4.295,4.063,4.87,4.87,0,0,1-1.712-.348,2.033,2.033,0,0,0-.406-.087c-.2,0-.145.406-.145.522v1.828c0,.726-.145,1.335.784,1.422.174.029.493,0,.493.232a.183.183,0,0,1-.2.2c-.551,0-1.1-.058-1.625-.058-.551,0-1.1.058-1.625.058-.116,0-.232-.029-.232-.174,0-.261.29-.232.493-.232.929-.087.784-.667.784-1.422v-7.11Zm5.514-1.132a3,3,0,0,0-2.089-.9,2.349,2.349,0,0,0-1.944.9,1.709,1.709,0,0,0-.29,1.19v2.67a2.1,2.1,0,0,0,.551,1.683,2.475,2.475,0,0,0,1.509.493,3.329,3.329,0,0,0,3.192-3.511,3.767,3.767,0,0,0-.929-2.525" transform="translate(-135.785 -53.8)" fill="#612172"/>
      <path id="Path_2725" data-name="Path 2725" d="M231.909,78.7c0,.725-.145,1.335.784,1.422.174.029.493,0,.493.232a.183.183,0,0,1-.2.2c-.551,0-1.1-.058-1.625-.058-.551,0-1.1.058-1.625.058-.116,0-.232-.029-.232-.174,0-.261.29-.232.493-.232.929-.087.784-.667.784-1.422V75.449c0-.232.029-.9-.174-1.1a.76.76,0,0,0-.493-.145h-.232c-.116,0-.2-.029-.2-.145,0-.2.232-.232.406-.29a3.833,3.833,0,0,0,1.422-.9c.087-.087.174-.232.319-.232.174,0,.145.145.145.261v5.8Zm-1.335-8.329a.838.838,0,0,1,.784-.871.849.849,0,0,1-.029,1.683.763.763,0,0,1-.755-.813" transform="translate(-159.279 -46.137)" fill="#612172"/>
      <path id="Path_2726" data-name="Path 2726" d="M244.847,81.552c0,.725-.029,2,1.016,2,.638,0,1.1-.609,1.248-.609a.125.125,0,0,1,.116.116c0,.174-.232.406-.348.493a2.34,2.34,0,0,1-1.6.667,1.643,1.643,0,0,1-1.248-.522,3.561,3.561,0,0,1-.377-2.118V77.112c0-.348-.116-.319-.435-.319-.087,0-.522.058-.522-.145,0-.116.116-.2.2-.261a3.934,3.934,0,0,0,1.625-1.741c.029-.058.087-.145.174-.145.116,0,.145.116.145.2v1.219c0,.232.029.319.261.348h1.712c.145,0,.145.116.145.232,0,.348-.145.261-.522.261h-.958c-.406,0-.638-.116-.638.377v4.411Z" transform="translate(-168.648 -49.686)" fill="#612172"/>
      <path id="Path_2727" data-name="Path 2727" d="M263.989,84.069c.609-.29.638-.319.638-.958v-.755c0-.842-.029-1.538-1.1-1.538a2.055,2.055,0,0,0-1.973,1.451c-.116.261-.2.493-.493.609a2.125,2.125,0,0,1-.725.232c-.145,0-.232-.029-.232-.2a1.914,1.914,0,0,1,.725-1.219A4.787,4.787,0,0,1,263.9,80.5a2.474,2.474,0,0,1,1.567.435c.406.348.348.784.348,1.248v4.063c0,.377-.029,1.364.609,1.364.435,0,.609-.435.784-.435a.133.133,0,0,1,.116.145c0,.2-.29.435-.406.522a2.372,2.372,0,0,1-1.219.493c-.842,0-.929-1.19-1.161-1.19-.145,0-1.277,1.306-2.757,1.306a1.484,1.484,0,0,1-1.625-1.364c0-1.219,1.6-1.944,2.554-2.409Zm-1.248.958c-.667.348-1.335.784-1.335,1.625a1.057,1.057,0,0,0,1.19,1.016,2.2,2.2,0,0,0,1.6-.7,1.516,1.516,0,0,0,.435-1.277V84.679c0-.058.058-.493-.116-.493-.058,0-.145.058-.2.058Z" transform="translate(-180.999 -53.945)" fill="#612172"/>
      <path id="Path_2728" data-name="Path 2728" d="M288.209,75.931c0,.726-.145,1.335.784,1.422.174.029.493,0,.493.232a.183.183,0,0,1-.2.2c-.551,0-1.1-.058-1.625-.058-.551,0-1.1.058-1.625.058-.116,0-.232-.029-.232-.174,0-.261.29-.232.493-.232.929-.087.784-.667.784-1.422V68.1c0-.638.145-1.393-.667-1.393-.145,0-.435.058-.435-.174,0-.116.145-.174.232-.2a4.6,4.6,0,0,0,1.538-.522c.087-.058.232-.2.348-.2.174,0,.145.145.145.261v10.07Z" transform="translate(-199.241 -43.369)" fill="#612172"/>
      <g id="Group_31230" data-name="Group 31230" transform="translate(5.1 5.051)">
        <path id="Path_2729" data-name="Path 2729" d="M6.754,25.35c.406-.29.7-.174.493.2a4.559,4.559,0,0,0-.493,2.293c.058,3.628,3.337,6.907,8.242,6.907,3.076,0,6.413-1.19,6.413-6.21,0-3.221-2.089-5.485-4.15-7.545-2.67-2.641-3.657-4.643-3.657-6.791,0-1.973.755-4.121,3.453-6.239A10.361,10.361,0,0,1,19.987,6.4H5.1V27.294A6.019,6.019,0,0,1,6.754,25.35Z" transform="translate(-5.1 -6.4)" fill="#612172"/>
        <path id="Path_2730" data-name="Path 2730" d="M34.817,34.3c-.551.348-1.016.29-1.335-.232a3.182,3.182,0,0,0-2.7-1.567c-1.19,0-2.177.667-3.047,2.322a16.483,16.483,0,0,0-1.683,7.168c-.029,2.351.7,4.179,2.554,4.179,2.147,0,4.034-1.509,5.253-2.5l.319.435c-2.438,2.641-5.369,4.063-7.371,4.063a3.165,3.165,0,0,1-2.7-1.364,10.667,10.667,0,0,1-4.121,6.036A12.58,12.58,0,0,1,13.6,55.31H35.4V33.719A2.748,2.748,0,0,1,34.817,34.3Z" transform="translate(-5.1 -24.926)" fill="#612172"/>
        <path id="Path_2731" data-name="Path 2731" d="M51.858,6.4a2.847,2.847,0,0,1,1.393,1.248,3.15,3.15,0,0,1,0,2.467,13.821,13.821,0,0,1-1.016,2.467H51.6c.58-3.221-.813-5.079-3.715-5.079C44.545,7.5,43.5,10.55,43.5,12.32c0,1.944.842,3.889,3.889,6.82a17.053,17.053,0,0,1,3.076,3.686,12.529,12.529,0,0,1,3.831-7.69,10.1,10.1,0,0,1,6.123-2.7,3,3,0,0,1,2.235.871V6.4Z" transform="translate(-32.356 -6.4)" fill="#612172"/>
      </g>
    </g>
  </g>
</svg>
