<svg xmlns="http://www.w3.org/2000/svg" width="315" height="151" viewBox="0 0 315 151">
  <g id="Group_31949" data-name="Group 31949" transform="translate(-30 -853)">
    <rect id="Rectangle_1558" data-name="Rectangle 1558" width="315" height="151" transform="translate(30 853)" fill="#f6f6f6"/>
    <g id="download_5_" data-name="download (5)" transform="translate(124 907)">
      <g id="Group_31231" data-name="Group 31231" transform="translate(24.713 25.223)">
        <path id="Path_2732" data-name="Path 2732" d="M71.5,86.743V72.2h3.137l6.307,9.445V72.2H84.18V86.743H81.206l-6.471-9.608v9.608Z" transform="translate(-71.5 -71.808)" fill="#612172"/>
        <path id="Path_2733" data-name="Path 2733" d="M116.4,86.743V72.2h3.3V86.743Z" transform="translate(-101.726 -71.808)" fill="#612172"/>
        <path id="Path_2734" data-name="Path 2734" d="M133.86,86.743,128.5,72.2h3.66l3.562,10.621L139.187,72.2h3.5l-5.36,14.543Z" transform="translate(-109.872 -71.808)" fill="#612172"/>
        <path id="Path_2735" data-name="Path 2735" d="M174,86.743V72.2h9.935v2.876h-6.667v2.843H182.5V80.7h-5.164v3.137h7.124v2.909Z" transform="translate(-140.502 -71.808)" fill="#612172"/>
        <path id="Path_2736" data-name="Path 2736" d="M210.1,86.743V72.2h5.425a5.723,5.723,0,0,1,2.843.621,4.388,4.388,0,0,1,1.7,1.667,4.479,4.479,0,0,1,.556,2.288,4.534,4.534,0,0,1-2.386,4.15l3.235,5.817h-3.628l-2.712-5.36H213.3v5.36Zm3.2-7.974h2.026a1.919,1.919,0,0,0,1.438-.556,1.847,1.847,0,0,0,.523-1.373,1.825,1.825,0,0,0-.523-1.405,1.9,1.9,0,0,0-1.438-.523H213.3Z" transform="translate(-164.805 -71.808)" fill="#612172"/>
        <path id="Path_2737" data-name="Path 2737" d="M243.8,83.909l2.124-2.288a8.638,8.638,0,0,0,1.5,1.209,4.1,4.1,0,0,0,2.222.588,2.623,2.623,0,0,0,.98-.2,1.723,1.723,0,0,0,.784-.556,1.307,1.307,0,0,0,.327-.85,1.461,1.461,0,0,0-.784-1.275,10.873,10.873,0,0,0-2.484-.882,5.6,5.6,0,0,1-2.745-1.471,3.594,3.594,0,0,1-1.078-2.712A4.218,4.218,0,0,1,247,71.621,6.175,6.175,0,0,1,249.977,71a6.827,6.827,0,0,1,2.484.392,6.322,6.322,0,0,1,1.634.85,5.372,5.372,0,0,1,.85.752l-1.9,2.092a14.255,14.255,0,0,0-1.275-.85,3.43,3.43,0,0,0-1.863-.458,2.437,2.437,0,0,0-1.307.392,1.152,1.152,0,0,0-.588.98,1.4,1.4,0,0,0,.784,1.209,7.792,7.792,0,0,0,2.157.752,7.874,7.874,0,0,1,2.059.784,4.7,4.7,0,0,1,1.634,1.471,4.262,4.262,0,0,1,.621,2.451,3.793,3.793,0,0,1-.752,2.32,5.1,5.1,0,0,1-1.994,1.6,6.7,6.7,0,0,1-2.843.588,8.729,8.729,0,0,1-2.549-.359,6.211,6.211,0,0,1-1.928-.915A6.452,6.452,0,0,1,243.8,83.909Z" transform="translate(-187.491 -71)" fill="#612172"/>
        <path id="Path_2738" data-name="Path 2738" d="M283.7,86.743V72.2H287V86.743Z" transform="translate(-214.352 -71.808)" fill="#612172"/>
        <path id="Path_2739" data-name="Path 2739" d="M301.606,86.743V75.109H296.9V72.2h12.713v2.909h-4.706V86.776h-3.3Z" transform="translate(-223.238 -71.808)" fill="#612172"/>
        <path id="Path_2740" data-name="Path 2740" d="M343,86.743V80.664L337.9,72.2h3.726l3.17,5.49,3.072-5.49h3.595l-5.131,8.432v6.111Z" transform="translate(-250.839 -71.808)" fill="#612172"/>
      </g>
      <g id="Group_31237" data-name="Group 31237" transform="translate(2.882 3)">
        <g id="Group_31236" data-name="Group 31236">
          <g id="Group_31232" data-name="Group 31232" transform="translate(0 4.412)">
            <path id="Path_2741" data-name="Path 2741" d="M7.511,17.611a1.14,1.14,0,0,0-.98-.556,1.177,1.177,0,1,0,0,2.353,1.14,1.14,0,0,0,.98-.556l.523.327a1.846,1.846,0,0,1-1.5.85A1.793,1.793,0,0,1,4.7,18.265a1.8,1.8,0,0,1,3.333-.915Z" transform="translate(-4.7 -16.5)" fill="#612172"/>
          </g>
          <path id="Path_2742" data-name="Path 2742" d="M18.259,20V18.626H16.854V20H16.2V16.6h.654v1.405h1.405V16.6h.654V20Z" transform="translate(-12.442 -12.155)" fill="#612172"/>
          <path id="Path_2743" data-name="Path 2743" d="M29.084,19.411V20H26.6V16.6h2.484v.621h-1.83v.784H28.79v.621H27.254v.784Z" transform="translate(-19.443 -12.155)" fill="#612172"/>
          <g id="Group_31233" data-name="Group 31233" transform="translate(10.098 4.412)">
            <path id="Path_2744" data-name="Path 2744" d="M37.626,17.35a1.258,1.258,0,0,0-.784-.261c-.294,0-.523.131-.523.359,0,.261.1.359.719.425.654.1,1.111.49,1.111,1.078,0,.654-.556,1.078-1.307,1.078A1.9,1.9,0,0,1,35.6,19.6l.359-.523a1.266,1.266,0,0,0,.882.327c.359,0,.621-.163.621-.425,0-.2-.065-.392-.719-.49-.784-.1-1.111-.425-1.111-1.013a1.09,1.09,0,0,1,1.209-.98,2.031,2.031,0,0,1,1.177.392Z" transform="translate(-35.6 -16.5)" fill="#612172"/>
            <path id="Path_2745" data-name="Path 2745" d="M104.626,17.35a1.258,1.258,0,0,0-.784-.261c-.294,0-.523.131-.523.359,0,.261.1.359.719.425.654.1,1.111.49,1.111,1.078,0,.654-.556,1.078-1.307,1.078A1.9,1.9,0,0,1,102.6,19.6l.359-.523a1.266,1.266,0,0,0,.882.327c.359,0,.621-.163.621-.425,0-.2-.065-.392-.719-.49-.784-.1-1.111-.425-1.111-1.013a1.09,1.09,0,0,1,1.209-.98,2.031,2.031,0,0,1,1.176.392Z" transform="translate(-80.704 -16.5)" fill="#612172"/>
          </g>
          <path id="Path_2746" data-name="Path 2746" d="M45.834,17.221V20H45.18V17.221H44.2V16.6h2.647v.621Z" transform="translate(-31.291 -12.155)" fill="#612172"/>
          <path id="Path_2747" data-name="Path 2747" d="M56.484,19.411V20H54V16.6h2.484v.621h-1.83v.784H56.19v.621H54.654v.784Z" transform="translate(-37.888 -12.155)" fill="#612172"/>
          <g id="Group_31234" data-name="Group 31234" transform="translate(19.216 4.445)">
            <path id="Path_2748" data-name="Path 2748" d="M65,17.221h-.85V18.3H65a.545.545,0,0,0,.523-.556A.5.5,0,0,0,65,17.221m.523,1.6L66.114,20H65.4l-.523-1.078h-.719V20H63.5V16.6H65a1.179,1.179,0,0,1,1.209,1.177,1.157,1.157,0,0,1-.686,1.046" transform="translate(-63.5 -16.6)" fill="#612172"/>
          </g>
          <path id="Path_2749" data-name="Path 2749" d="M74.434,17.221V20H73.78V17.221H72.8V16.6h2.647v.621Z" transform="translate(-50.544 -12.155)" fill="#612172"/>
          <g id="Group_31235" data-name="Group 31235" transform="translate(24.968 4.412)">
            <path id="Path_2750" data-name="Path 2750" d="M82.93,17.088a1.177,1.177,0,1,0,1.177,1.177,1.172,1.172,0,0,0-1.177-1.177m0,2.941a1.766,1.766,0,1,1,1.83-1.765,1.793,1.793,0,0,1-1.83,1.765" transform="translate(-81.1 -16.5)" fill="#612172"/>
          </g>
          <path id="Path_2751" data-name="Path 2751" d="M94.1,3V15.321h.2V8.588l1.373,2.255h.654v-3.4h-.654V9.732L94.3,7.477V3Z" transform="translate(-64.884 -3)" fill="#612172"/>
        </g>
      </g>
      <g id="Group_31238" data-name="Group 31238" transform="translate(2 16.562)">
        <path id="Path_2752" data-name="Path 2752" d="M33.279,72.8,30.73,74.042v6.5a5.273,5.273,0,0,1-5.49,5.033,5.273,5.273,0,0,1-5.49-5.033v-6.5L17.2,72.8v7.811c0,4.052,3.595,7.353,8.039,7.353s8.039-3.3,8.039-7.353V72.8Z" transform="translate(-12.233 -63.551)" fill="#612172" fill-rule="evenodd"/>
        <path id="Path_2753" data-name="Path 2753" d="M27.8,78v7.026a4.276,4.276,0,0,0,2.255,2.745V79.078L27.8,78Z" transform="translate(-19.368 -67.052)" fill="#612172"/>
        <path id="Path_2754" data-name="Path 2754" d="M40.622,83.1l-1.111.556L38.4,83.1v8.53a6.082,6.082,0,0,0,1.111.131,4.142,4.142,0,0,0,1.111-.131V83.1Z" transform="translate(-26.504 -70.485)" fill="#612172"/>
        <path id="Path_2755" data-name="Path 2755" d="M51.055,78,48.8,79.078v8.693a4.478,4.478,0,0,0,2.255-2.745V78Z" transform="translate(-33.505 -67.052)" fill="#612172"/>
        <path id="Path_2756" data-name="Path 2756" d="M2,50.154l12.974,6.275,13.007-6.275L14.974,44.5Z" transform="translate(-2 -44.5)" fill="#612172" fill-rule="evenodd"/>
        <path id="Path_2757" data-name="Path 2757" d="M10.59,65.1H10.1v9.151h.49Z" transform="translate(-7.453 -58.368)" fill="#612172" fill-rule="evenodd"/>
        <path id="Path_2758" data-name="Path 2758" d="M8.859,90.1h.85a.363.363,0,0,1,.359.359V92.42a.363.363,0,0,1-.359.359h-.85A.363.363,0,0,1,8.5,92.42V90.459a.363.363,0,0,1,.359-.359Z" transform="translate(-6.376 -75.198)" fill="#612172"/>
      </g>
    </g>
  </g>
</svg>
