<svg id="Outline" xmlns="http://www.w3.org/2000/svg" width="47.502" height="46.711" viewBox="0 0 47.502 46.711">
  <path id="Path_1951" data-name="Path 1951" d="M60.336,69.128v-38h1.583a.792.792,0,0,0,.792-.792V24.792A.792.792,0,0,0,61.85,24L34.932,26.378a.792.792,0,0,0-.722.789v3.167a.792.792,0,0,0,.792.792h1.583V43.793h1.583V31.126H58.752v38H53.564A2.957,2.957,0,0,0,54,67.567,2.857,2.857,0,0,0,52.976,65.4c-.387-.39-.558-.58-.558-1.024,0-1.967-1.088-3.959-3.167-3.959s-3.167,1.991-3.167,3.959c0,.444-.171.635-.558,1.024A2.857,2.857,0,0,0,44.5,67.567a2.957,2.957,0,0,0,.438,1.561H36.584V58.835a.792.792,0,0,0-.792-.792h-4.75a.792.792,0,0,0-.792.792V69.128H27.876V55.147l9.5-4.156,9.5,4.156v4.48H48.46V55.84l1.266.554a.792.792,0,0,0,1.109-.726V51.71a.792.792,0,0,0-.474-.725L37.693,45.443a.792.792,0,0,0-.635,0L24.391,50.985a.792.792,0,0,0-.474.725v3.959a.792.792,0,0,0,1.109.725l1.266-.554V69.128H20.75V55.669h1.583V54.085h-4.75V36.668H35V35.084H29.787l-2.935-2.935a.792.792,0,0,0-.56-.232H19.959a.792.792,0,0,0-.792.792v2.375H16.792a.792.792,0,0,0-.792.792v19a.792.792,0,0,0,.792.792h2.375V69.128H16v1.583H63.5V69.128ZM35.793,27.892l25.335-2.235v3.886H35.793ZM25.5,54.458v-2.23l11.876-5.2,11.876,5.2v2.23l-.792-.346v-.027H48.4L37.693,49.4a.792.792,0,0,0-.635,0L26.353,54.085h-.061v.027ZM20.75,33.5h5.214l1.583,1.583h-6.8ZM31.834,59.627H35v9.5H31.834Zm15.834,9.5a1.706,1.706,0,0,1-1.583-1.561c0-.46.173-.655.566-1.05a2.829,2.829,0,0,0,1.017-2.14C47.668,62.5,48.7,62,49.252,62c1.252,0,1.583,1.554,1.583,2.375a2.829,2.829,0,0,0,1.017,2.14c.392.4.566.59.566,1.05a1.706,1.706,0,0,1-1.583,1.561Z" transform="translate(-16 -24)" fill="#bc8418"/>
  <path id="Path_1952" data-name="Path 1952" d="M240.792,384a.792.792,0,0,0-.792.792v3.959a.792.792,0,0,0,.792.792h4.75a.792.792,0,0,0,.792-.792v-3.959a.792.792,0,0,0-.792-.792Zm3.959,3.959h-3.167v-2.375h3.167Z" transform="translate(-217.832 -348.373)" fill="#bc8418"/>
  <rect id="Rectangle_991" data-name="Rectangle 991" width="1.657" height="1.105" transform="translate(16.571 31.088)" fill="#bc8418"/>
  <path id="Path_1953" data-name="Path 1953" d="M56.709,177.5v-7.917h7.125V168H48.792a.792.792,0,0,0-.792.792v12.667a.792.792,0,0,0,.792.792h2.375v-1.583H49.583V169.583h5.542V177.5Z" transform="translate(-44.833 -153.749)" fill="#bc8418"/>
  <path id="Path_1954" data-name="Path 1954" d="M264.792,126.334h4.75a.792.792,0,0,0,.792-.792v-4.75a.792.792,0,0,0-.792-.792h-4.75a.792.792,0,0,0-.792.792v4.75A.792.792,0,0,0,264.792,126.334Zm.792-4.75h3.167v3.167h-3.167Z" transform="translate(-239.457 -110.5)" fill="#bc8418"/>
  <path id="Path_1955" data-name="Path 1955" d="M360.792,126.334h4.75a.792.792,0,0,0,.792-.792v-4.75a.792.792,0,0,0-.792-.792h-4.75a.792.792,0,0,0-.792.792v4.75A.792.792,0,0,0,360.792,126.334Zm.792-4.75h3.167v3.167h-3.167Z" transform="translate(-325.957 -110.5)" fill="#bc8418"/>
  <path id="Path_1956" data-name="Path 1956" d="M264,211.167h1.583v-1.583h3.167v3.959h1.583v-4.75a.792.792,0,0,0-.792-.792h-4.75a.792.792,0,0,0-.792.792Z" transform="translate(-239.457 -189.791)" fill="#bc8418"/>
  <path id="Path_1957" data-name="Path 1957" d="M360,213.542a.792.792,0,0,0,.792.792h4.75a.792.792,0,0,0,.792-.792v-4.75a.792.792,0,0,0-.792-.792h-4.75a.792.792,0,0,0-.792.792Zm1.583-3.959h3.167v3.167h-3.167Z" transform="translate(-325.957 -189.791)" fill="#bc8418"/>
  <path id="Path_1958" data-name="Path 1958" d="M384,300.75v1.583h3.167a.792.792,0,0,0,.792-.792v-4.75a.792.792,0,0,0-.792-.792H384v1.583h2.375v3.167Z" transform="translate(-347.581 -269.082)" fill="#bc8418"/>
  <rect id="Rectangle_992" data-name="Rectangle 992" width="1.657" height="1.657" transform="translate(6.076 33.85)" fill="#bc8418"/>
</svg>
