<svg xmlns="http://www.w3.org/2000/svg" xmlns:xlink="http://www.w3.org/1999/xlink" width="46.712" height="46.712" viewBox="0 0 46.712 46.712">
  <defs>
    <clipPath id="clip-path">
      <path id="path288" d="M0-682.665H46.712v46.712H0Z" transform="translate(0 682.665)" fill="#bc8418"/>
    </clipPath>
  </defs>
  <g id="g282" transform="translate(0 682.665)">
    <g id="g284" transform="translate(0 -682.665)">
      <g id="g286" clip-path="url(#clip-path)">
        <g id="g292" transform="translate(5.693 0.912)">
          <path id="path294" d="M-480.938-183.561a6.968,6.968,0,0,0-3.755-6.184,3.986,3.986,0,0,0-3.975-3.7,3.974,3.974,0,0,0-2.873,1.225,7.581,7.581,0,0,0-7.059-4.819,7.58,7.58,0,0,0-6.912,4.47,3.969,3.969,0,0,0-2.492-.876A3.986,3.986,0,0,0-511.954-190a6.972,6.972,0,0,0-4.31,6.444,6.962,6.962,0,0,0,3.045,5.76,3.986,3.986,0,0,0,3.981,3.776,3.971,3.971,0,0,0,2.667-1.024c0,.026,0,.051,0,.077a3.986,3.986,0,0,0,3.986,3.986,3.973,3.973,0,0,0,2.781-1.131,7.83,7.83,0,0,0,1.47.14,7.822,7.822,0,0,0,1.47-.14,3.972,3.972,0,0,0,2.781,1.131,3.986,3.986,0,0,0,3.986-3.986c0-.026,0-.051,0-.077a3.971,3.971,0,0,0,2.667,1.024,3.986,3.986,0,0,0,3.986-3.986c0-.064,0-.127,0-.19A6.955,6.955,0,0,0-480.938-183.561Z" transform="translate(516.264 197.044)" fill="rgba(0,0,0,0)" stroke="#bc8418" stroke-linecap="round" stroke-linejoin="round" stroke-miterlimit="10" stroke-width="2"/>
        </g>
        <g id="g296" transform="translate(41.002 13.906)">
          <path id="path298" d="M-45.976-174.118a6.3,6.3,0,0,0-.841-2.82,5.541,5.541,0,0,0,2.261-4.47,5.551,5.551,0,0,0-4.8-5.5" transform="translate(49.353 186.908)" fill="rgba(0,0,0,0)" stroke="#bc8418" stroke-linecap="round" stroke-linejoin="round" stroke-miterlimit="10" stroke-width="2"/>
        </g>
        <g id="g300" transform="translate(25.571 33.101)">
          <path id="path302" d="M0-2.654a5.021,5.021,0,0,0,2.457.638A5.023,5.023,0,0,0,4.6-2.5,3.829,3.829,0,0,0,8.1-.218a3.829,3.829,0,0,0,3.553-2.4,6.394,6.394,0,0,0,.822.055,6.338,6.338,0,0,0,1.885-.285" transform="translate(0 2.849)" fill="rgba(0,0,0,0)" stroke="#bc8418" stroke-linecap="round" stroke-linejoin="round" stroke-miterlimit="10" stroke-width="2"/>
        </g>
        <g id="g304" transform="translate(25.571 23.539)">
          <path id="path306" d="M-98.384,0V.959a4.725,4.725,0,0,1-1.762,3.69L-105.6,9.06l-.007,6.006a12.673,12.673,0,0,0,2.234,7.2" transform="translate(105.61)" fill="rgba(0,0,0,0)" stroke="#bc8418" stroke-linecap="round" stroke-linejoin="round" stroke-miterlimit="10" stroke-width="2"/>
        </g>
        <g id="g308" transform="translate(25.578 26.239)">
          <path id="path310" d="M-.026,0l0,1.67L1.283.61" transform="translate(0.028)" fill="rgba(0,0,0,0)" stroke="#bc8418" stroke-linecap="round" stroke-linejoin="round" stroke-miterlimit="10" stroke-width="2"/>
        </g>
        <g id="g312" transform="translate(17.564 26.538)">
          <path id="path314" d="M0,0V2.175a1.092,1.092,0,0,0,.407.853L3.572,5.586,3.566.021" fill="rgba(0,0,0,0)" stroke="#bc8418" stroke-linecap="round" stroke-linejoin="round" stroke-miterlimit="10" stroke-width="2"/>
        </g>
        <g id="g316" transform="translate(13.914 23.748)">
          <path id="path318" d="M-67.969-300.212h0a12.671,12.671,0,0,0,2.234-7.195l0-1.788-5.46-4.412a4.725,4.725,0,0,1-1.762-3.69v-4.965" transform="translate(72.961 322.263)" fill="rgba(0,0,0,0)" stroke="#bc8418" stroke-linecap="round" stroke-linejoin="round" stroke-miterlimit="10" stroke-width="2"/>
        </g>
        <g id="g320" transform="translate(0.912 13.906)">
          <path id="path322" d="M-223.726-270.215a5.034,5.034,0,0,1-.807-.3,3.829,3.829,0,0,1-3.5,2.277,3.829,3.829,0,0,1-3.553-2.4,6.415,6.415,0,0,1-.822.055,6.341,6.341,0,0,1-6.341-6.34,6.308,6.308,0,0,1,.85-3.17,5.541,5.541,0,0,1-2.261-4.47,5.551,5.551,0,0,1,4.8-5.5" transform="translate(240.159 290.063)" fill="rgba(0,0,0,0)" stroke="#bc8418" stroke-linecap="round" stroke-linejoin="round" stroke-miterlimit="10" stroke-width="2"/>
        </g>
        <g id="g324" transform="translate(43.266 30.647)">
          <path id="path326" d="M0,0H0" fill="rgba(0,0,0,0)" stroke="#bc8418" stroke-linecap="round" stroke-linejoin="round" stroke-miterlimit="10" stroke-width="2"/>
        </g>
      </g>
    </g>
  </g>
</svg>
