<svg xmlns="http://www.w3.org/2000/svg" width="43.511" height="43.511" viewBox="0 0 43.511 43.511">
  <path id="networking" d="M34.809,17.4A8.7,8.7,0,1,0,26.931,5.028l-2.33-.86a3.52,3.52,0,0,0,.055-.542,3.658,3.658,0,1,0-.554,1.9l2.326.859a8.544,8.544,0,0,0,.119,5.032L18.572,14.8A8.66,8.66,0,0,0,7.81,10.721L5.8,6.506a3.607,3.607,0,1,0-2.178.746A3.565,3.565,0,0,0,4.5,7.134l2,4.211a8.687,8.687,0,0,0-.465,14.736L4.71,28.466a3.589,3.589,0,0,0-1.084-.183,3.669,3.669,0,1,0,2.352.889l1.329-2.389a8.629,8.629,0,0,0,8.859-1.032l2.854,3.14a8.661,8.661,0,0,0-2.341,5.919,8.759,8.759,0,0,0,.108,1.3l-3.358.8a3.6,3.6,0,1,0,.349,1.527c0-.04-.011-.078-.012-.118l3.352-.795a8.7,8.7,0,1,0,15.927-6.828l4.26-2.77a3.7,3.7,0,1,0-.788-1.218l-4.27,2.776a8.751,8.751,0,0,0-3.241-2.574l3.54-9.812a8.671,8.671,0,0,0,2.262.309ZM21.03,5.8a2.176,2.176,0,1,1,2.176-2.176A2.178,2.178,0,0,1,21.03,5.8ZM1.451,3.626A2.176,2.176,0,1,1,3.626,5.8,2.178,2.178,0,0,1,1.451,3.626ZM3.626,34.084A2.176,2.176,0,1,1,5.8,31.908,2.178,2.178,0,0,1,3.626,34.084Zm6.527,6.527a2.176,2.176,0,1,1,2.176-2.176A2.178,2.178,0,0,1,10.153,40.61Zm29.732-17.4a2.176,2.176,0,1,1-2.176,2.176A2.178,2.178,0,0,1,39.885,23.206ZM30.538,14.55A3.637,3.637,0,0,1,34.084,11.6h1.45A3.637,3.637,0,0,1,39.08,14.55a7.2,7.2,0,0,1-8.541,0Zm4.271-4.4a2.176,2.176,0,1,1,2.176-2.176A2.178,2.178,0,0,1,34.809,10.153Zm0-8.7a7.241,7.241,0,0,1,5.474,11.994,5.137,5.137,0,0,0-2.888-2.933,3.626,3.626,0,1,0-5.172,0,5.137,5.137,0,0,0-2.888,2.933A7.241,7.241,0,0,1,34.809,1.45ZM3.626,18.855a7.252,7.252,0,1,1,12.715,4.754,5.138,5.138,0,0,0-2.892-2.945,3.626,3.626,0,1,0-5.173,0,5.136,5.136,0,0,0-2.884,2.922A7.213,7.213,0,0,1,3.626,18.855Zm5.062-.725a2.176,2.176,0,1,1,2.176,2.176A2.178,2.178,0,0,1,8.688,18.13ZM6.6,24.693a3.635,3.635,0,0,1,3.543-2.938h1.45a3.635,3.635,0,0,1,3.547,2.957,7.2,7.2,0,0,1-8.54-.019ZM21.1,40.647a3.635,3.635,0,0,1,3.543-2.938h1.45a3.635,3.635,0,0,1,3.547,2.957,7.2,7.2,0,0,1-8.54-.019Zm4.268-4.388a2.176,2.176,0,1,1,2.176-2.176A2.178,2.178,0,0,1,25.367,36.259Zm7.266-1.45a7.216,7.216,0,0,1-1.788,4.754,5.138,5.138,0,0,0-2.892-2.945,3.626,3.626,0,1,0-5.173,0A5.136,5.136,0,0,0,19.9,39.539a7.248,7.248,0,1,1,12.736-4.73Zm-4.99-8.393a8.583,8.583,0,0,0-7.55,1.5l-2.854-3.14a8.639,8.639,0,0,0,1.9-8.638l7.976-3.38A8.749,8.749,0,0,0,31.184,16.6Zm0,0" transform="translate(0)" fill="#bc8418"/>
</svg>
