<svg id="Group_30993" data-name="Group 30993" xmlns="http://www.w3.org/2000/svg" xmlns:xlink="http://www.w3.org/1999/xlink" width="55.41" height="39.893" viewBox="0 0 55.41 39.893">
  <defs>
    <clipPath id="clip-path">
      <rect id="Rectangle_1031" data-name="Rectangle 1031" width="55.41" height="39.893" fill="none"/>
    </clipPath>
  </defs>
  <g id="Group_30992" data-name="Group 30992" transform="translate(0 0)" clip-path="url(#clip-path)">
    <path id="Path_1980" data-name="Path 1980" d="M55.344,17.595,49.3,2.012a1.022,1.022,0,0,0-1.328-.571c-.032.013-.062.026-.093.042l-5.1,2.73c-1.163.607-2.374.169-4.246-.6-2.564-1.048-6.035-2.463-10.556.34-3.287-1.945-6.094-1.283-8.375-.74-1.755.415-3.141.74-4.481-.013-.023-.014-.048-.025-.072-.037L8.391.093A1.012,1.012,0,0,0,7.05.582L.093,15.389A1.022,1.022,0,0,0,.6,16.744l.031.014c.09.038,6.214,2.8,6.8,3.022.49.19.642.752.846,1.9A7.776,7.776,0,0,0,8.76,23.5l-1,1.865A3.913,3.913,0,0,0,11.2,31.123a2.357,2.357,0,0,0,.259-.01,3.918,3.918,0,0,0,1.993,4.206,3.959,3.959,0,0,0,3.836-.085,3.89,3.89,0,0,0,1.756,1.927,3.968,3.968,0,0,0,3.515.086,3.905,3.905,0,0,0,3.686,2.644,3.952,3.952,0,0,0,3.208-1.66l1.375.757a3.907,3.907,0,0,0,5.726-4.149,3.914,3.914,0,0,0,3.212-2.019,3.863,3.863,0,0,0,.463-2.2,3.9,3.9,0,0,0,4.412-4.477,3.929,3.929,0,0,0,3.37-2.031,3.855,3.855,0,0,0,.423-2.509L54.8,18.891a1.012,1.012,0,0,0,.547-1.3ZM10.327,28.869a1.914,1.914,0,0,1-.774-2.555l1.841-3.443a1.888,1.888,0,0,1,3.33,1.781L12.878,28.1a1.912,1.912,0,0,1-2.551.769m5.523,4.8a1.885,1.885,0,0,1-2.212-2.694l2.5-4.67a1.888,1.888,0,0,1,3.326,1.786l-2.5,4.665a1.874,1.874,0,0,1-1.118.912M21.442,35.5a1.885,1.885,0,0,1-2.212-2.694l2.018-3.773a2.074,2.074,0,0,1,1.014-.875,1.886,1.886,0,0,1,2.316,2.656l-2.018,3.773a1.876,1.876,0,0,1-1.118.913Zm5.367,2.264A1.885,1.885,0,0,1,24.6,35.081l1.766-3.3a1.888,1.888,0,1,1,3.33,1.781l-1.763,3.3a1.872,1.872,0,0,1-1.121.913Zm7.56-1.3a1.891,1.891,0,0,1-2.564.74l-1.375-.753,1.043-1.95a3.891,3.891,0,0,0,.45-1.539l1.682.925.014.007a1.9,1.9,0,0,1,.751,2.573ZM46.238,23.14a1.9,1.9,0,0,1-2.554.75l-7.192-4.061a1.012,1.012,0,0,0-1,1.762l6.191,3.5a1.888,1.888,0,1,1-1.812,3.314l-7.831-4.378a1.012,1.012,0,1,0-.993,1.764l6.187,3.485a1.888,1.888,0,0,1-1.812,3.314l-4.4-2.433a3.907,3.907,0,0,0-4.134-1.23c-.063.019-.126.04-.188.062-.016-.066-.034-.131-.054-.2a3.9,3.9,0,0,0-4.861-2.605l-.012,0c-.063.019-.126.04-.188.062-.016-.066-.034-.131-.054-.2a3.9,3.9,0,0,0-4.587-2.678,4.032,4.032,0,0,0-.152-.758,3.913,3.913,0,0,0-6.573-1.557,3.719,3.719,0,0,0-2.065-3.173c-.583-.226-3.76-1.658-5.467-2.427l-.33-.148L8.451,2.357l5.711,2.636c2.016,1.116,3.992.648,5.9.2,1.976-.466,3.859-.912,6.084.1-.517.429-1.033.9-1.541,1.415a34.758,34.758,0,0,1-7.441,5.554,1.013,1.013,0,0,0-.377,1.381,1.031,1.031,0,0,0,.059.091c3.913,5.394,8.538,3.516,12.255,2.01,2.475-1,4.613-1.868,6.337-.885l10.031,5.717a1.919,1.919,0,0,1,.765,2.569M47.6,19.76a3.945,3.945,0,0,0-1.118-.952L36.454,13.091a5.336,5.336,0,0,0-2.7-.7,15.121,15.121,0,0,0-5.394,1.466c-3.4,1.375-6.373,2.58-9.151-.454a35.588,35.588,0,0,0,6.852-5.288,17.566,17.566,0,0,1,2.468-2.1c3.913-2.71,6.63-1.6,9.25-.529,1.91.782,3.887,1.587,5.957.512l4.1-2.2L53.1,17.418Z" transform="translate(0 0)" fill="#bc8418"/>
  </g>
</svg>
