<svg id="g1167" xmlns="http://www.w3.org/2000/svg" xmlns:xlink="http://www.w3.org/1999/xlink" width="48.991" height="48.991" viewBox="0 0 48.991 48.991">
  <defs>
    <clipPath id="clip-path">
      <path id="path1173" d="M0-682.665H48.991v48.991H0Z" transform="translate(0 682.665)" fill="none" stroke="#bc8418" stroke-width="1.5"/>
    </clipPath>
  </defs>
  <g id="g1169" transform="translate(0 0)">
    <g id="g1171" transform="translate(0 0)" clip-path="url(#clip-path)">
      <g id="g1177" transform="translate(15.975 3.837)">
        <path id="path1179" d="M-46.608-23.3a1.8,1.8,0,0,1-1.8,1.8,1.8,1.8,0,0,1-1.8-1.8,1.8,1.8,0,0,1,1.8-1.8A1.8,1.8,0,0,1-46.608-23.3Z" transform="translate(50.212 25.107)" fill="none" stroke="#bc8418" stroke-linecap="round" stroke-linejoin="round" stroke-miterlimit="10" stroke-width="1.5"/>
      </g>
      <g id="g1181" transform="translate(34.02 28.48)">
        <path id="path1183" d="M-46.608-23.3a1.8,1.8,0,0,1-1.8,1.8,1.8,1.8,0,0,1-1.8-1.8,1.8,1.8,0,0,1,1.8-1.8A1.8,1.8,0,0,1-46.608-23.3Z" transform="translate(50.212 25.107)" fill="none" stroke="#bc8418" stroke-linecap="round" stroke-linejoin="round" stroke-miterlimit="10" stroke-width="1.5"/>
      </g>
      <g id="g1185" transform="translate(1.726 10.737)">
        <path id="path1187" d="M-107.81-418.776a22.675,22.675,0,0,0,14.434,5.16q.622,0,1.237-.034l-.592-1.436a2.138,2.138,0,0,1,.736-2.554,2.132,2.132,0,0,0,.9-1.74,2.844,2.844,0,0,0-.578-2.188l-1.115-1.189A2.136,2.136,0,0,1-93-425.421l.3-.438a2.137,2.137,0,0,0-1.1-3.233l-3.237-1.063a1.272,1.272,0,0,1-.7-.571l-2.22-3.819a1.274,1.274,0,0,0-2.186-.029l-.531.861a1.274,1.274,0,0,1-1.083.605,1.275,1.275,0,0,1-1.235-1.6l1.15-4.4a1.273,1.273,0,0,1,.65-.812l2.343-1.206a1.273,1.273,0,0,0,.661-1.409,2.467,2.467,0,0,0-1.993-1.9,8.023,8.023,0,0,1-2.92-.778l-3.4-2.063a3.931,3.931,0,0,1-1.734-2.262l-.472-1.621a22.675,22.675,0,0,0-5.438,14.767,22.69,22.69,0,0,0,6.233,15.652" transform="translate(116.145 451.152)" fill="none" stroke="#bc8418" stroke-linecap="round" stroke-linejoin="round" stroke-miterlimit="10" stroke-width="1.5"/>
      </g>
      <g id="g1189" transform="translate(12.859 0.718)">
        <path id="path1191" d="M-63.849,0a4.993,4.993,0,0,0-4.927,5.343c.175,2.924,2.116,5.556,3.5,7.083a1.9,1.9,0,0,0,2.806,0c1.455-1.6,3.52-4.415,3.52-7.508A4.921,4.921,0,0,0-63.849,0Z" transform="translate(68.786 0)" fill="none" stroke="#bc8418" stroke-linecap="round" stroke-linejoin="round" stroke-miterlimit="10" stroke-width="1.5"/>
      </g>
      <g id="g1193" transform="translate(26.308 10.862)">
        <path id="path1195" d="M-202.085,0l-.925,1.645a2.222,2.222,0,0,1-1.759,1.126,2.221,2.221,0,0,0-1.78,1.163l-.847,1.579a2.222,2.222,0,0,1-2.116,1.165c-.529-.035-.629-.052-.881-.052a4.123,4.123,0,0,0-3.038,1.335c-1.547,1.689-.8,3.482-2.077,5.174l-1.932,2.578a1.344,1.344,0,0,0,.286,1.893l1.674,1.214a1.346,1.346,0,0,0,1.127.212c.548-.137.973-.247,1.31-.337a4.959,4.959,0,0,1,4.866-4.2,4.921,4.921,0,0,1,4.9,4.921,7.578,7.578,0,0,1-.2,1.681l.052.039,4.41,3.391a22.674,22.674,0,0,0,2.255-9.89A22.678,22.678,0,0,0-202.085,0Z" transform="translate(217.709)" fill="none" stroke="#bc8418" stroke-linecap="round" stroke-linejoin="round" stroke-miterlimit="10" stroke-width="1.5"/>
      </g>
      <g id="g1197" transform="translate(7.164 2.734)">
        <path id="path1199" d="M-342.872-24.908a22.687,22.687,0,0,0-9.176-1.926,23.018,23.018,0,0,0-2.639.152,4.9,4.9,0,0,1,.842,2.753c0,3.093-2.065,5.908-3.52,7.508a1.9,1.9,0,0,1-2.806,0c-1.388-1.527-3.33-4.159-3.5-7.083,0-.045,0-.089,0-.133a22.886,22.886,0,0,0-5.7,4.808h0l.472,1.621a3.932,3.932,0,0,0,1.734,2.262l3.4,2.063a8.023,8.023,0,0,0,2.92.778,2.467,2.467,0,0,1,1.993,1.9,1.273,1.273,0,0,1-.661,1.409l-2.343,1.206a1.274,1.274,0,0,0-.65.812l-1.15,4.4a1.275,1.275,0,0,0,1.235,1.6,1.274,1.274,0,0,0,1.083-.605l.531-.861a1.274,1.274,0,0,1,2.186.029l2.22,3.819a1.272,1.272,0,0,0,.7.571l3.237,1.063a2.137,2.137,0,0,1,1.1,3.233l-.3.439a2.136,2.136,0,0,0,.206,2.665l1.115,1.189a2.844,2.844,0,0,1,.578,2.188,2.132,2.132,0,0,1-.9,1.74,2.138,2.138,0,0,0-.736,2.554l.591,1.436A22.773,22.773,0,0,0-331.535,5.826l-4.41-3.391L-336,2.4a13.74,13.74,0,0,1-3.324,5.827,1.9,1.9,0,0,1-2.806,0c-1.388-1.527-3.33-4.16-3.5-7.083a5.135,5.135,0,0,1,.061-1.145c-.338.09-.762.2-1.31.337a1.346,1.346,0,0,1-1.127-.212L-349.681-1.1a1.344,1.344,0,0,1-.286-1.893l1.932-2.578c1.274-1.692.53-3.485,2.077-5.174a4.123,4.123,0,0,1,3.038-1.335c.252,0,.352.017.881.052a2.222,2.222,0,0,0,2.116-1.165l.847-1.579a2.221,2.221,0,0,1,1.78-1.163,2.222,2.222,0,0,0,1.759-1.126l.925-1.645a22.874,22.874,0,0,0-5.594-4.808" transform="translate(369.38 26.833)" fill="none" stroke="#bc8418" stroke-linecap="round" stroke-linejoin="round" stroke-miterlimit="10" stroke-width="1.5"/>
      </g>
      <g id="g1201" transform="translate(30.904 25.36)">
        <path id="path1203" d="M-63.849,0a4.993,4.993,0,0,0-4.927,5.343c.175,2.924,2.116,5.556,3.5,7.083a1.9,1.9,0,0,0,2.806,0c1.455-1.6,3.52-4.415,3.52-7.508A4.921,4.921,0,0,0-63.849,0Z" transform="translate(68.786 0)" fill="none" stroke="#bc8418" stroke-linecap="round" stroke-linejoin="round" stroke-miterlimit="10" stroke-width="1.5"/>
      </g>
    </g>
  </g>
</svg>
