<svg xmlns="http://www.w3.org/2000/svg" xmlns:xlink="http://www.w3.org/1999/xlink" width="77.225" height="77.225" viewBox="0 0 77.225 77.225">
  <defs>
    <clipPath id="clip-path">
      <path id="path288" d="M0-682.665H77.225v77.224H0Z" transform="translate(0 682.665)" fill="#bc8418"/>
    </clipPath>
  </defs>
  <g id="why-ches-icon1" transform="translate(0 682.665)">
    <g id="g284" transform="translate(0 -682.665)">
      <g id="g286" clip-path="url(#clip-path)">
        <g id="g292" transform="translate(9.412 1.508)">
          <path id="path294" d="M-457.863-174.753a11.52,11.52,0,0,0-6.208-10.224,6.589,6.589,0,0,0-6.572-6.124,6.57,6.57,0,0,0-4.75,2.025,12.534,12.534,0,0,0-11.671-7.967,12.532,12.532,0,0,0-11.428,7.39,6.561,6.561,0,0,0-4.119-1.448,6.59,6.59,0,0,0-6.528,5.7,11.525,11.525,0,0,0-7.126,10.652,11.51,11.51,0,0,0,5.034,9.522,6.59,6.59,0,0,0,6.581,6.243,6.564,6.564,0,0,0,4.409-1.693c0,.043,0,.084,0,.127a6.59,6.59,0,0,0,6.59,6.59,6.567,6.567,0,0,0,4.6-1.87,12.944,12.944,0,0,0,2.43.232,12.932,12.932,0,0,0,2.43-.232,6.567,6.567,0,0,0,4.6,1.87,6.59,6.59,0,0,0,6.59-6.59c0-.043,0-.085,0-.127a6.565,6.565,0,0,0,4.409,1.693,6.59,6.59,0,0,0,6.59-6.59c0-.105,0-.21-.008-.313A11.5,11.5,0,0,0-457.863-174.753Z" transform="translate(516.264 197.044)" fill="rgba(0,0,0,0)" stroke="#bc8418" stroke-linecap="round" stroke-linejoin="round" stroke-miterlimit="10" stroke-width="2"/>
        </g>
        <g id="g296" transform="translate(67.785 22.989)">
          <path id="path298" d="M-43.77-165.764a10.423,10.423,0,0,0-1.39-4.662,9.16,9.16,0,0,0,3.738-7.39,9.177,9.177,0,0,0-7.932-9.092" transform="translate(49.353 186.908)" fill="rgba(0,0,0,0)" stroke="#bc8418" stroke-linecap="round" stroke-linejoin="round" stroke-miterlimit="10" stroke-width="2"/>
        </g>
        <g id="g300" transform="translate(42.274 54.722)">
          <path id="path302" d="M0-2.527A8.3,8.3,0,0,0,4.062-1.472a8.3,8.3,0,0,0,3.547-.791A6.33,6.33,0,0,0,13.4,1.5a6.331,6.331,0,0,0,5.873-3.969,10.57,10.57,0,0,0,1.359.09,10.477,10.477,0,0,0,3.117-.471" transform="translate(0 2.849)" fill="rgba(0,0,0,0)" stroke="#bc8418" stroke-linecap="round" stroke-linejoin="round" stroke-miterlimit="10" stroke-width="2"/>
        </g>
        <g id="g304" transform="translate(42.274 38.915)">
          <path id="path306" d="M-93.664,0V1.586a7.812,7.812,0,0,1-2.913,6.1l-9.023,7.291-.011,9.929A20.951,20.951,0,0,0-101.917,36.8" transform="translate(105.61)" fill="rgba(0,0,0,0)" stroke="#bc8418" stroke-linecap="round" stroke-linejoin="round" stroke-miterlimit="10" stroke-width="2"/>
        </g>
        <g id="g308" transform="translate(42.285 43.378)">
          <path id="path310" d="M-.025,0l0,2.761L2.14,1.008" transform="translate(0.028)" fill="rgba(0,0,0,0)" stroke="#bc8418" stroke-linecap="round" stroke-linejoin="round" stroke-miterlimit="10" stroke-width="2"/>
        </g>
        <g id="g312" transform="translate(29.037 43.874)">
          <path id="path314" d="M0,0V3.6a1.8,1.8,0,0,0,.673,1.41L5.906,9.235,5.9.035" fill="rgba(0,0,0,0)" stroke="#bc8418" stroke-linecap="round" stroke-linejoin="round" stroke-miterlimit="10" stroke-width="2"/>
        </g>
        <g id="g316" transform="translate(23.003 39.261)">
          <path id="path318" d="M-64.708-285.808h0A20.948,20.948,0,0,0-61.014-297.7l-.008-2.956-9.026-7.295a7.812,7.812,0,0,1-2.913-6.1v-8.209" transform="translate(72.961 322.263)" fill="rgba(0,0,0,0)" stroke="#bc8418" stroke-linecap="round" stroke-linejoin="round" stroke-miterlimit="10" stroke-width="2"/>
        </g>
        <g id="g320" transform="translate(1.508 22.989)">
          <path id="path322" d="M-212.992-257.251a8.314,8.314,0,0,1-1.334-.493,6.33,6.33,0,0,1-5.786,3.764,6.331,6.331,0,0,1-5.873-3.969,10.6,10.6,0,0,1-1.358.09,10.482,10.482,0,0,1-10.482-10.482,10.429,10.429,0,0,1,1.406-5.241,9.161,9.161,0,0,1-3.738-7.39,9.177,9.177,0,0,1,7.932-9.092" transform="translate(240.159 290.063)" fill="rgba(0,0,0,0)" stroke="#bc8418" stroke-linecap="round" stroke-linejoin="round" stroke-miterlimit="10" stroke-width="2"/>
        </g>
        <g id="g324" transform="translate(71.528 50.666)">
          <path id="path326" d="M0,0H0" fill="rgba(0,0,0,0)" stroke="#bc8418" stroke-linecap="round" stroke-linejoin="round" stroke-miterlimit="10" stroke-width="2"/>
        </g>
      </g>
    </g>
  </g>
</svg>
